<?xml version="1.0" encoding="us-ascii" standalone="no"?><svg xmlns="http://www.w3.org/2000/svg" xmlns:xlink="http://www.w3.org/1999/xlink" contentStyleType="text/css" height="255px" preserveAspectRatio="none" style="width:1231px;height:255px;background:#FFFFFF;" version="1.1" viewBox="0 0 1231 255" width="1231px" zoomAndPan="magnify"><defs/><g><text fill="#000000" font-family="sans-serif" font-size="14" font-weight="bold" lengthAdjust="spacing" textLength="355" x="434" y="23.5352">Creazione personaggi - Factory Method e Builder</text><!--class CharacterYaml--><g id="elem_CharacterYaml"><rect codeLine="9" fill="#F1F1F1" height="57.1094" id="CharacterYaml" rx="2.5" ry="2.5" style="stroke:#181818;stroke-width:0.5;" width="113" x="6" y="94.3127"/><text fill="#000000" font-family="sans-serif" font-size="12" font-style="italic" lengthAdjust="spacing" textLength="42" x="41.5" y="110.9142">&#171;asset&#187;</text><text fill="#000000" font-family="sans-serif" font-size="14" lengthAdjust="spacing" textLength="107" x="9" y="126.9806">characters.yaml</text><text fill="#000000" font-family="sans-serif" font-size="14" lengthAdjust="spacing" textLength="93" x="16" y="143.4689">enemies.yaml</text></g><!--class PlayerFactory--><g id="elem_PlayerFactory"><rect codeLine="10" fill="#F1F1F1" height="40.6211" id="PlayerFactory" rx="2.5" ry="2.5" style="stroke:#181818;stroke-width:0.5;" width="97" x="14" y="35.3127"/><text fill="#000000" font-family="sans-serif" font-size="12" font-style="italic" lengthAdjust="spacing" textLength="55" x="35" y="51.9142">&#171;Creator&#187;</text><text fill="#000000" font-family="sans-serif" font-size="14" font-style="italic" lengthAdjust="spacing" textLength="91" x="17" y="67.9806">PlayerFactory</text></g><!--class YamlPlayerFactory--><g id="elem_YamlPlayerFactory"><rect codeLine="11" fill="#F1F1F1" height="40.6211" id="YamlPlayerFactory" rx="2.5" ry="2.5" style="stroke:#181818;stroke-width:0.5;" width="131" x="158" y="58.3127"/><text fill="#000000" font-family="sans-serif" font-size="12" font-style="italic" lengthAdjust="spacing" textLength="110" x="168.5" y="74.9142">&#171;Concrete Creator&#187;</text><text fill="#000000" font-family="sans-serif" font-size="14" lengthAdjust="spacing" textLength="125" x="161" y="90.9806">YamlPlayerFactory</text></g><!--class EnemyFactory--><g id="elem_EnemyFactory"><rect codeLine="12" fill="#F1F1F1" height="40.6211" id="EnemyFactory" rx="2.5" ry="2.5" style="stroke:#181818;stroke-width:0.5;" width="101" x="12" y="169.3127"/><text fill="#000000" font-family="sans-serif" font-size="12" font-style="italic" lengthAdjust="spacing" textLength="55" x="35" y="185.9142">&#171;Creator&#187;</text><text fill="#000000" font-family="sans-serif" font-size="14" font-style="italic" lengthAdjust="spacing" textLength="95" x="15" y="201.9806">EnemyFactory</text></g><!--class YamlEnemyFactory--><g id="elem_YamlEnemyFactory"><rect codeLine="13" fill="#F1F1F1" height="40.6211" id="YamlEnemyFactory" rx="2.5" ry="2.5" style="stroke:#181818;stroke-width:0.5;" width="135" x="156" y="147.3127"/><text fill="#000000" font-family="sans-serif" font-size="12" font-style="italic" lengthAdjust="spacing" textLength="110" x="168.5" y="163.9142">&#171;Concrete Creator&#187;</text><text fill="#000000" font-family="sans-serif" font-size="14" lengthAdjust="spacing" textLength="129" x="159" y="179.9806">YamlEnemyFactory</text></g><!--class CharacterBuilder--><g id="elem_CharacterBuilder"><rect codeLine="14" fill="#F1F1F1" height="40.6211" id="CharacterBuilder" rx="2.5" ry="2.5" style="stroke:#181818;stroke-width:0.5;" width="121" x="715.5" y="82.3127"/><text fill="#000000" font-family="sans-serif" font-size="12" font-style="italic" lengthAdjust="spacing" textLength="52" x="750" y="98.9142">&#171;Builder&#187;</text><text fill="#000000" font-family="sans-serif" font-size="14" font-style="italic" lengthAdjust="spacing" textLength="115" x="718.5" y="114.9806">CharacterBuilder</text></g><!--class CharacterBuildDirector--><g id="elem_CharacterBuildDirector"><rect codeLine="15" fill="#F1F1F1" height="40.6211" id="CharacterBuildDirector" rx="2.5" ry="2.5" style="stroke:#181818;stroke-width:0.5;" width="162" x="328" y="82.3127"/><text fill="#000000" font-family="sans-serif" font-size="12" font-style="italic" lengthAdjust="spacing" textLength="58" x="380" y="98.9142">&#171;Director&#187;</text><text fill="#000000" font-family="sans-serif" font-size="14" lengthAdjust="spacing" textLength="156" x="331" y="114.9806">CharacterBuildDirector</text></g><!--class PlayerBuilder--><g id="elem_PlayerBuilder"><rect codeLine="16" fill="#F1F1F1" height="40.6211" id="PlayerBuilder" rx="2.5" ry="2.5" style="stroke:#181818;stroke-width:0.5;" width="109" x="976" y="49.3127"/><text fill="#000000" font-family="sans-serif" font-size="12" font-style="italic" lengthAdjust="spacing" textLength="107" x="977" y="65.9142">&#171;Concrete Builder&#187;</text><text fill="#000000" font-family="sans-serif" font-size="14" lengthAdjust="spacing" textLength="89" x="986" y="81.9806">PlayerBuilder</text></g><!--class EnemyBuilder--><g id="elem_EnemyBuilder"><rect codeLine="17" fill="#F1F1F1" height="40.6211" id="EnemyBuilder" rx="2.5" ry="2.5" style="stroke:#181818;stroke-width:0.5;" width="109" x="976" y="153.3127"/><text fill="#000000" font-family="sans-serif" font-size="12" font-style="italic" lengthAdjust="spacing" textLength="107" x="977" y="169.9142">&#171;Concrete Builder&#187;</text><text fill="#000000" font-family="sans-serif" font-size="14" lengthAdjust="spacing" textLength="93" x="984" y="185.9806">EnemyBuilder</text></g><!--class Character--><g id="elem_Character"><rect codeLine="18" fill="#F1F1F1" height="26.4883" id="Character" rx="2.5" ry="2.5" style="stroke:#181818;stroke-width:0.5;" width="73" x="994" y="108.8127"/><text fill="#000000" font-family="sans-serif" font-size="14" font-style="italic" lengthAdjust="spacing" textLength="67" x="997" y="127.3478">Character</text></g><!--class Player--><g id="elem_Player"><rect codeLine="19" fill="#F1F1F1" height="26.4883" id="Player" rx="2.5" ry="2.5" style="stroke:#181818;stroke-width:0.5;" width="47" x="1166" y="76.8127"/><text fill="#000000" font-family="sans-serif" font-size="14" lengthAdjust="spacing" textLength="41" x="1169" y="95.3478">Player</text></g><!--class Enemy--><g id="elem_Enemy"><rect codeLine="20" fill="#F1F1F1" height="40.6211" id="Enemy" rx="2.5" ry="2.5" style="stroke:#181818;stroke-width:0.5;" width="69" x="1155" y="126.3127"/><text fill="#000000" font-family="sans-serif" font-size="12" font-style="italic" lengthAdjust="spacing" textLength="67" x="1156" y="142.9142">&#171;Prototype&#187;</text><text fill="#000000" font-family="sans-serif" font-size="14" lengthAdjust="spacing" textLength="45" x="1167" y="158.9806">Enemy</text></g><g id="elem_GMN29"><path d="M613,141.8127 L613,197.7443 A0,0 0 0 0 613,197.7443 L939,197.7443 A0,0 0 0 0 939,197.7443 L939,151.8127 L929,141.8127 L780,141.8127 L776,123.5294 L772,141.8127 L613,141.8127 A0,0 0 0 0 613,141.8127 " fill="#FEFFDD" style="stroke:#181818;stroke-width:0.5;"/><path d="M929,141.8127 L929,151.8127 L939,151.8127 L929,141.8127 " fill="#FEFFDD" style="stroke:#181818;stroke-width:0.5;"/><text fill="#000000" font-family="sans-serif" font-size="13" lengthAdjust="spacing" textLength="277" x="619" y="159.381">Factory Method seleziona la sorgente YAML.</text><text fill="#000000" font-family="sans-serif" font-size="13" lengthAdjust="spacing" textLength="289" x="619" y="174.6916">Il Director ordina i passi dichiarati dal Builder.</text><text fill="#000000" font-family="sans-serif" font-size="13" lengthAdjust="spacing" textLength="305" x="619" y="190.0021">Player ed Enemy sono gli unici prodotti concreti.</text></g><polygon fill="none" points="111.2052,62.7134,128.1608,71.2286,129.8788,59.3522,111.2052,62.7134" style="stroke:#181818;stroke-width:1.0;"/><path d="M129.0198,65.2904 C143.6556,67.4075 142.198,67.1967 157.7713,69.4494 " fill="none" style="stroke:#181818;stroke-width:1.0;"/><polygon fill="none" points="113.3723,182.9121,132.0248,186.3884,130.3801,174.5017,113.3723,182.9121" style="stroke:#181818;stroke-width:1.0;"/><path d="M131.2025,180.445 C144.6813,178.58 141.656,178.9986 155.8939,177.0286 " fill="none" style="stroke:#181818;stroke-width:1.0;"/><polygon fill="#181818" points="157.9289,96.6814,148.1881,95.2266,153.11,98.0149,150.3217,102.9369,157.9289,96.6814" style="stroke:#181818;stroke-width:1.0;"/><path d="M119.1105,107.4236 C131.6479,103.9541 139.2764,101.8431 152.1462,98.2816 " fill="none" style="stroke:#181818;stroke-width:1.0;"/><polygon fill="#181818" points="155.9946,148.9904,148.424,142.6907,151.1835,147.6288,146.2454,150.3883,155.9946,148.9904" style="stroke:#181818;stroke-width:1.0;"/><path d="M119.1105,138.5515 C131.021,141.9224 137.9469,143.8826 150.2213,147.3564 " fill="none" style="stroke:#181818;stroke-width:1.0;"/><polygon fill="#181818" points="975.6604,67.9402,966.7278,63.7919,970.6611,67.8575,966.5955,71.7908,975.6604,67.9402" style="stroke:#181818;stroke-width:1.0;"/><path d="M289.0819,75.3061 C301.9702,74.7154 315.4125,74.1766 328,73.8127 C607.4515,65.7328 677.4349,69.146 957,67.8127 C963.0439,67.7838 963.371,67.7369 969.6612,67.841 " fill="none" style="stroke:#181818;stroke-width:1.0;"/><polygon fill="#181818" points="982.9216,194.3151,973.0927,193.6886,978.2326,196.0511,975.8702,201.191,982.9216,194.3151" style="stroke:#181818;stroke-width:1.0;"/><path d="M291.1063,181.4989 C418.1692,205.3965 703.5031,248.409 939,206.8127 C953.6573,204.2237 963.4346,201.5295 977.2948,196.3983 " fill="none" style="stroke:#181818;stroke-width:1.0;"/><polygon fill="#181818" points="327.8093,92.3245,319.4041,87.1911,322.8515,91.6761,318.3666,95.1236,327.8093,92.3245" style="stroke:#181818;stroke-width:1.0;"/><path d="M289.1952,87.2742 C301.6806,88.9071 308.9508,89.858 321.86,91.5464 " fill="none" style="stroke:#181818;stroke-width:1.0;"/><polygon fill="#181818" points="350.0024,123.3568,340.1834,122.5914,345.2894,125.0262,342.8545,130.1323,350.0024,123.3568" style="stroke:#181818;stroke-width:1.0;"/><path d="M282.5605,147.2463 C304.0855,139.6216 322.8275,132.9828 344.3468,125.3601 " fill="none" style="stroke:#181818;stroke-width:1.0;"/><polygon fill="#181818" points="715.4741,102.8127,706.4741,98.8127,710.4741,102.8127,706.4741,106.8127,715.4741,102.8127" style="stroke:#181818;stroke-width:1.0;"/><path d="M490.1008,102.8127 C558.0925,102.8127 648.1206,102.8127 709.4741,102.8127 " fill="none" style="stroke:#181818;stroke-width:1.0;"/><text fill="#000000" font-family="sans-serif" font-size="13" lengthAdjust="spacing" textLength="85" x="509" y="99.381">ordina i passi</text><polygon fill="none" points="836.5192,95.0339,855.145,98.6507,853.5899,86.7519,836.5192,95.0339" style="stroke:#181818;stroke-width:1.0;"/><path d="M854.3675,92.7013 C896.6497,87.1753 935.0972,82.1505 975.9669,76.8091 " fill="none" style="stroke:#181818;stroke-width:1.0;stroke-dasharray:7.0,7.0;"/><polygon fill="none" points="836.7073,110.3329,853.5804,119.0104,855.4122,107.151,836.7073,110.3329" style="stroke:#181818;stroke-width:1.0;"/><path d="M854.4963,113.0807 C885.4573,117.8632 905.8432,122.4017 939,132.8127 C956.1151,138.1867 974.2602,145.9609 989.7738,153.2983 " fill="none" style="stroke:#181818;stroke-width:1.0;stroke-dasharray:7.0,7.0;"/><polygon fill="#181818" points="1165.7718,86.9174,1157.3494,81.8121,1160.8119,86.2855,1156.3385,89.748,1165.7718,86.9174" style="stroke:#181818;stroke-width:1.0;"/><path d="M1085.0914,76.6396 C1112.6291,80.1476 1138.7773,83.4786 1159.8199,86.1592 " fill="none" style="stroke:#181818;stroke-width:1.0;"/><text fill="#000000" font-family="sans-serif" font-size="13" lengthAdjust="spacing" textLength="32" x="1104" y="75.381">build</text><polygon fill="#181818" points="1154.7925,155.1131,1145.1346,153.1828,1149.914,156.2089,1146.8879,160.9883,1154.7925,155.1131" style="stroke:#181818;stroke-width:1.0;"/><path d="M1085.0489,167.1262 C1101.7407,164.7936 1120.1796,161.9618 1137,158.8127 C1142.7752,157.7314 1143.0274,157.7558 1148.9383,156.4281 " fill="none" style="stroke:#181818;stroke-width:1.0;"/><text fill="#000000" font-family="sans-serif" font-size="13" lengthAdjust="spacing" textLength="32" x="1104" y="155.381">build</text><polygon fill="none" points="1067.1257,114.5514,1085.9614,116.8356,1083.5648,105.0774,1067.1257,114.5514" style="stroke:#181818;stroke-width:1.0;"/><path d="M1084.7631,110.9565 C1114.9807,104.7975 1139.7875,99.7413 1165.6472,94.4706 " fill="none" style="stroke:#181818;stroke-width:1.0;"/><polygon fill="none" points="1067.1257,127.4856,1083.9582,136.2415,1085.8453,124.3908,1067.1257,127.4856" style="stroke:#181818;stroke-width:1.0;"/><path d="M1084.9018,130.3161 C1111.2291,134.5084 1129.0614,137.3479 1154.8963,141.4618 " fill="none" style="stroke:#181818;stroke-width:1.0;"/><!--SRC=[VLJBRjmm3BphAzZSRVHSB1P8qnO8q001UWhGYonpRQ9w63Btu20VNshzs9NjpKscXaFEaDQNBkh6QR1w26U6tY5hhnKJMuIdYFgTWaVeCFR1wwOXAE2NDXpY02_8RQW1uVkPR8rHAOid1WuGgMaPQefeMF9L_uzyfwDsOApk-qVcIDMPyTa4_uVU4Rwgbce4T1qFuD1LKcyC6Oh6ebANH7WmhT0ObkjoqCx-zUZH4OvV3w1xU9eHRnA1mq7Ia8z7fQkUqyNO0hoAOeopbCCXQPMZ0CVxbBt116yYycZC25wn_fHkXiz9rv0j9tdf_gGDNhLC3Wj-EYsKEUJ7nVAGWFDnGOvghanBvJNbfSDFSIlLImzPfLiseNcDWGCF7Kg-MZdxKHHRmrNkr8ovZQfys4LntA7PnsGqss4dM6QOsimkGMwjkiEoFw1zkZlOEpFUPiYyla68DNaD19tOJsgxGnzbkTAsZyd4vTjpjKSALYceigrPl5ckbnBZ9ASLMKKlAKhv8DjM1URW89ms6jNg0UhHOdgcqYi6VOWDoWy4RuyllqlrR67nApT6dYVJaZ2p7BMTjxkSb0BMam9v-08qbk3ioKXo3BMqHc36_u9AXRw6rFD_]--></g></svg>