<?xml version="1.0" encoding="us-ascii" standalone="no"?><svg xmlns="http://www.w3.org/2000/svg" xmlns:xlink="http://www.w3.org/1999/xlink" contentStyleType="text/css" height="331px" preserveAspectRatio="none" style="width:693px;height:331px;background:#FFFFFF;" version="1.1" viewBox="0 0 693 331" width="693px" zoomAndPan="magnify"><defs/><g><text fill="#000000" font-family="sans-serif" font-size="14" font-weight="bold" lengthAdjust="spacing" textLength="178" x="253.5" y="23.5352">Runtime livello - Facade</text><!--class LevelsYaml--><g id="elem_LevelsYaml"><rect codeLine="9" fill="#F1F1F1" height="40.6211" id="LevelsYaml" rx="2.5" ry="2.5" style="stroke:#181818;stroke-width:0.5;" width="117" x="144" y="49.4883"/><text fill="#000000" font-family="sans-serif" font-size="12" font-style="italic" lengthAdjust="spacing" textLength="42" x="181.5" y="66.0898">&#171;asset&#187;</text><text fill="#000000" font-family="sans-serif" font-size="14" lengthAdjust="spacing" textLength="111" x="147" y="82.1563">map/levels.yaml</text></g><!--class LevelTmx--><g id="elem_LevelTmx"><rect codeLine="10" fill="#F1F1F1" height="40.6211" id="LevelTmx" rx="2.5" ry="2.5" style="stroke:#181818;stroke-width:0.5;" width="68" x="168.5" y="108.4883"/><text fill="#000000" font-family="sans-serif" font-size="12" font-style="italic" lengthAdjust="spacing" textLength="42" x="181.5" y="125.0898">&#171;asset&#187;</text><text fill="#000000" font-family="sans-serif" font-size="14" lengthAdjust="spacing" textLength="62" x="171.5" y="141.1563">level.tmx</text></g><!--class SceneController--><g id="elem_SceneController"><rect codeLine="11" fill="#F1F1F1" height="40.6211" id="SceneController" rx="2.5" ry="2.5" style="stroke:#181818;stroke-width:0.5;" width="116" x="144.5" y="167.4883"/><text fill="#000000" font-family="sans-serif" font-size="12" font-style="italic" lengthAdjust="spacing" textLength="53" x="176" y="184.0898">&#171;Facade&#187;</text><text fill="#000000" font-family="sans-serif" font-size="14" lengthAdjust="spacing" textLength="110" x="147.5" y="200.1563">SceneController</text></g><!--class LevelCatalog--><g id="elem_LevelCatalog"><rect codeLine="12" fill="#F1F1F1" height="40.6211" id="LevelCatalog" rx="2.5" ry="2.5" style="stroke:#181818;stroke-width:0.5;" width="93" x="447.5" y="51.4883"/><text fill="#000000" font-family="sans-serif" font-size="12" font-style="italic" lengthAdjust="spacing" textLength="55" x="466.5" y="68.0898">&#171;Catalog&#187;</text><text fill="#000000" font-family="sans-serif" font-size="14" lengthAdjust="spacing" textLength="87" x="450.5" y="84.1563">LevelCatalog</text></g><!--class TmxLevelLoader--><g id="elem_TmxLevelLoader"><rect codeLine="13" fill="#F1F1F1" height="40.6211" id="TmxLevelLoader" rx="2.5" ry="2.5" style="stroke:#181818;stroke-width:0.5;" width="118" x="435" y="112.4883"/><text fill="#000000" font-family="sans-serif" font-size="12" font-style="italic" lengthAdjust="spacing" textLength="52" x="468" y="129.0898">&#171;Loader&#187;</text><text fill="#000000" font-family="sans-serif" font-size="14" lengthAdjust="spacing" textLength="112" x="438" y="145.1563">TmxLevelLoader</text></g><!--class LevelRuntime--><g id="elem_LevelRuntime"><rect codeLine="14" fill="#F1F1F1" height="26.4883" id="LevelRuntime" rx="2.5" ry="2.5" style="stroke:#181818;stroke-width:0.5;" width="97" x="589" y="173.9883"/><text fill="#000000" font-family="sans-serif" font-size="14" lengthAdjust="spacing" textLength="91" x="592" y="192.5234">LevelRuntime</text></g><!--class LevelScreen--><g id="elem_LevelScreen"><rect codeLine="15" fill="#F1F1F1" height="40.6211" id="LevelScreen" rx="2.5" ry="2.5" style="stroke:#181818;stroke-width:0.5;" width="86" x="451" y="215.4883"/><text fill="#000000" font-family="sans-serif" font-size="12" font-style="italic" lengthAdjust="spacing" textLength="66" x="461" y="232.0898">&#171;Boundary&#187;</text><text fill="#000000" font-family="sans-serif" font-size="14" lengthAdjust="spacing" textLength="80" x="454" y="248.1563">LevelScreen</text></g><!--class RuntimeServices--><g id="elem_RuntimeServices"><rect codeLine="16" fill="#F1F1F1" height="106.5742" id="RuntimeServices" rx="2.5" ry="2.5" style="stroke:#181818;stroke-width:0.5;" width="84" x="595.5" y="218.4883"/><text fill="#000000" font-family="sans-serif" font-size="12" font-style="italic" lengthAdjust="spacing" textLength="58" x="608.5" y="235.0898">&#171;Services&#187;</text><text fill="#000000" font-family="sans-serif" font-size="14" lengthAdjust="spacing" textLength="49" x="613" y="251.1563">Physics</text><text fill="#000000" font-family="sans-serif" font-size="14" lengthAdjust="spacing" textLength="45" x="615" y="267.6445">Enemy</text><text fill="#000000" font-family="sans-serif" font-size="14" lengthAdjust="spacing" textLength="78" x="598.5" y="284.1328">Checkpoint</text><text fill="#000000" font-family="sans-serif" font-size="14" lengthAdjust="spacing" textLength="28" x="623.5" y="300.6211">NPC</text><text fill="#000000" font-family="sans-serif" font-size="14" lengthAdjust="spacing" textLength="72" x="601.5" y="317.1094">Collectible</text></g><g id="elem_GMN18"><path d="M6,226.4883 L6,251.7988 A0,0 0 0 0 6,251.7988 L399,251.7988 A0,0 0 0 0 399,251.7988 L399,236.4883 L389,226.4883 L206.5,226.4883 L202.5,208.6074 L198.5,226.4883 L6,226.4883 A0,0 0 0 0 6,226.4883 " fill="#FEFFDD" style="stroke:#181818;stroke-width:0.5;"/><path d="M389,226.4883 L389,236.4883 L399,236.4883 L389,226.4883 " fill="#FEFFDD" style="stroke:#181818;stroke-width:0.5;"/><text fill="#000000" font-family="sans-serif" font-size="13" lengthAdjust="spacing" textLength="372" x="12" y="244.0566">Minimo: SceneController carica il livello e apre LevelScreen.</text></g><polygon fill="#181818" points="447.4496,71.6736,438.4775,67.6115,442.4498,71.6391,438.4222,75.6113,447.4496,71.6736" style="stroke:#181818;stroke-width:1.0;"/><path d="M261.042,70.3858 C315.7876,70.764 391.0668,71.2841 441.4498,71.6321 " fill="none" style="stroke:#181818;stroke-width:1.0;"/><polygon fill="#181818" points="434.9999,132.1869,426.056,128.0629,430.0004,132.1178,425.9455,136.0622,434.9999,132.1869" style="stroke:#181818;stroke-width:1.0;"/><path d="M236.7093,129.4471 C285.0526,130.1151 369.5133,131.2821 429.0005,132.104 " fill="none" style="stroke:#181818;stroke-width:1.0;"/><polygon fill="#181818" points="448.6267,92.5748,438.8983,94.1103,444.4301,95.293,443.2474,100.8249,448.6267,92.5748" style="stroke:#181818;stroke-width:1.0;"/><path d="M260.9261,191.5815 C302.394,191.4506 358.0682,185.4188 399,158.9883 C423.8565,142.9379 413.2532,123.0516 435,102.9883 C439.1119,99.1947 438.7387,98.9794 443.5908,95.8367 " fill="none" style="stroke:#181818;stroke-width:1.0;"/><polygon fill="#181818" points="434.8561,150.2657,425.1267,148.7363,430.0272,151.5622,427.2013,156.4627,434.8561,150.2657" style="stroke:#181818;stroke-width:1.0;"/><path d="M260.7177,181.3787 C299.8695,176.3978 352.8428,168.7567 399,158.9883 C410.6785,156.5167 417.259,154.9905 429.0614,151.8215 " fill="none" style="stroke:#181818;stroke-width:1.0;"/><polygon fill="#181818" points="588.9718,187.098,579.9626,183.1188,583.9719,187.1096,579.9811,191.1188,588.9718,187.098" style="stroke:#181818;stroke-width:1.0;"/><path d="M260.5524,187.8565 C346.7841,187.6574 502.7436,187.2972 582.9719,187.1119 " fill="none" style="stroke:#181818;stroke-width:1.0;"/><polygon fill="#181818" points="450.9467,227.5919,442.8737,221.9503,446.0383,226.6392,441.3494,229.8038,450.9467,227.5919" style="stroke:#181818;stroke-width:1.0;"/><path d="M260.9054,196.2276 C299.9105,201.9657 352.6406,209.9954 399,217.9883 C416.0293,220.9243 428.8459,223.3023 445.0566,226.4487 " fill="none" style="stroke:#181818;stroke-width:1.0;"/><polygon fill="#181818" points="598.6852,200.0832,588.8718,199.2484,593.9605,201.7193,591.4896,206.808,598.6852,200.0832" style="stroke:#181818;stroke-width:1.0;"/><path d="M537.0716,221.4193 C556.6233,214.6488 574.0227,208.6235 593.0155,202.0465 " fill="none" style="stroke:#181818;stroke-width:1.0;"/><polygon fill="#181818" points="595.3213,261.5117,587.5854,255.4162,590.4757,260.2789,585.6129,263.1692,595.3213,261.5117" style="stroke:#181818;stroke-width:1.0;"/><path d="M537.0716,246.692 C555.4828,251.3761 571.1982,255.3744 589.5066,260.0324 " fill="none" style="stroke:#181818;stroke-width:1.0;"/><!--SRC=[ZL9BImCn4BxdLuozjtgMKj2Y85GfhXUXbsbsx0vD9aioBLr_lTdjkrNmDfdlaPalkQaZBZo2moQi598dHK6Zh8xWVINAdi3ncfmBq8Tdj5YICOw-53H0v4MbK78agnp4f2LBZH4zM8SfFQX6dg-KNcoGWhy9xap59G7vMXlmvESKqxPbELgNhJiXz3pMjuxolMdGe7Szm0IJxloPZp0SPXRfQBJdTzo1-isH-U4tLxp2aj0uYCRW7CMCRrSw43hb61LTM6HqLntWxDan9Y6BMlcsE9VlSZjj5JOIIUO_XfMK69lZvDEgIMpJJ9w4V3EJSKLsMGSMdSdRT9mRxQWvtxcZRhcTVK5npPPIDjsNsTISXDJlZyxsCOTOMkHy5NEPp9NuDy9_FVQ9_4dOvcDEixeINu8NEHWZGGdcGJLu25-NRsrUMTY7-wi_O36oHM1t-EW4M4SwdMnWI4feB_W1]--></g></svg>