<?xml version="1.0" encoding="us-ascii" standalone="no"?><svg xmlns="http://www.w3.org/2000/svg" xmlns:xlink="http://www.w3.org/1999/xlink" contentStyleType="text/css" height="626px" preserveAspectRatio="none" style="width:3039px;height:626px;background:#FFFFFF;" version="1.1" viewBox="0 0 3039 626" width="3039px" zoomAndPan="magnify"><defs/><g><text fill="#000000" font-family="sans-serif" font-size="14" font-weight="bold" lengthAdjust="spacing" textLength="468" x="1281.75" y="23.5352">Runtime del livello &#8212; Facade di caricamento e sottosistemi TMX</text><!--cluster Catalogo e validazione--><g id="cluster_Catalogo e validazione"><path d="M160,41.4883 L325,41.4883 A3.75,3.75 0 0 1 327.5,43.9883 L334.5,63.9766 L693,63.9766 A2.5,2.5 0 0 1 695.5,66.4766 L695.5,616.9883 A2.5,2.5 0 0 1 693,619.4883 L160,619.4883 A2.5,2.5 0 0 1 157.5,616.9883 L157.5,43.9883 A2.5,2.5 0 0 1 160,41.4883 " fill="none" style="stroke:#000000;stroke-width:1.5;"/><line style="stroke:#000000;stroke-width:1.5;" x1="157.5" x2="334.5" y1="63.9766" y2="63.9766"/><text fill="#000000" font-family="sans-serif" font-size="14" font-weight="bold" lengthAdjust="spacing" textLength="164" x="161.5" y="57.0234">Catalogo e validazione</text></g><!--cluster Caricamento runtime--><g id="cluster_Caricamento runtime"><path d="M1364,171.4883 L1517,171.4883 A3.75,3.75 0 0 1 1519.5,173.9883 L1526.5,193.9766 L1692,193.9766 A2.5,2.5 0 0 1 1694.5,196.4766 L1694.5,616.9883 A2.5,2.5 0 0 1 1692,619.4883 L1364,619.4883 A2.5,2.5 0 0 1 1361.5,616.9883 L1361.5,173.9883 A2.5,2.5 0 0 1 1364,171.4883 " fill="none" style="stroke:#000000;stroke-width:1.5;"/><line style="stroke:#000000;stroke-width:1.5;" x1="1361.5" x2="1526.5" y1="193.9766" y2="193.9766"/><text fill="#000000" font-family="sans-serif" font-size="14" font-weight="bold" lengthAdjust="spacing" textLength="152" x="1365.5" y="187.0234">Caricamento runtime</text></g><!--cluster Sottosistemi del livello--><g id="cluster_Sottosistemi del livello"><path d="M1931,191.9883 L2101,191.9883 A3.75,3.75 0 0 1 2103.5,194.4883 L2110.5,214.4766 L3030,214.4766 A2.5,2.5 0 0 1 3032.5,216.9766 L3032.5,538.9883 A2.5,2.5 0 0 1 3030,541.4883 L1931,541.4883 A2.5,2.5 0 0 1 1928.5,538.9883 L1928.5,194.4883 A2.5,2.5 0 0 1 1931,191.9883 " fill="none" style="stroke:#000000;stroke-width:1.5;"/><line style="stroke:#000000;stroke-width:1.5;" x1="1928.5" x2="2110.5" y1="214.4766" y2="214.4766"/><text fill="#000000" font-family="sans-serif" font-size="14" font-weight="bold" lengthAdjust="spacing" textLength="169" x="1932.5" y="207.5234">Sottosistemi del livello</text></g><!--class LevelsYaml--><g id="elem_LevelsYaml"><rect codeLine="7" fill="#F1F1F1" height="40.6211" id="LevelsYaml" rx="2.5" ry="2.5" style="stroke:#181818;stroke-width:0.5;" width="143" x="6" y="237.9883"/><ellipse cx="21" cy="258.2988" fill="#ADD1B2" rx="11" ry="11" style="stroke:#181818;stroke-width:1.0;"/><path d="M23.4731,264.4419 Q22.8921,264.7407 22.2529,264.8901 Q21.6138,265.0396 20.9082,265.0396 Q18.4014,265.0396 17.0815,263.3877 Q15.7617,261.7358 15.7617,258.6147 Q15.7617,255.4854 17.0815,253.8335 Q18.4014,252.1816 20.9082,252.1816 Q21.6138,252.1816 22.2612,252.3311 Q22.9087,252.4805 23.4731,252.7793 L23.4731,255.502 Q22.8423,254.9209 22.2488,254.6511 Q21.6553,254.3813 21.0244,254.3813 Q19.6797,254.3813 18.9949,255.448 Q18.3101,256.5146 18.3101,258.6147 Q18.3101,260.7065 18.9949,261.7732 Q19.6797,262.8398 21.0244,262.8398 Q21.6553,262.8398 22.2488,262.5701 Q22.8423,262.3003 23.4731,261.7192 Z " fill="#000000"/><text fill="#000000" font-family="sans-serif" font-size="12" font-style="italic" lengthAdjust="spacing" textLength="43" x="69" y="254.5898">&#171;YAML&#187;</text><text fill="#000000" font-family="sans-serif" font-size="14" lengthAdjust="spacing" textLength="111" x="35" y="270.6563">map/levels.yaml</text></g><!--class LevelYaml--><g id="elem_LevelYaml"><rect codeLine="8" fill="#F1F1F1" height="40.6211" id="LevelYaml" rx="2.5" ry="2.5" style="stroke:#181818;stroke-width:0.5;" width="223" x="705" y="375.4883"/><ellipse cx="720" cy="395.7988" fill="#ADD1B2" rx="11" ry="11" style="stroke:#181818;stroke-width:1.0;"/><path d="M722.4731,401.9419 Q721.8921,402.2407 721.2529,402.3901 Q720.6138,402.5396 719.9082,402.5396 Q717.4014,402.5396 716.0815,400.8877 Q714.7617,399.2358 714.7617,396.1147 Q714.7617,392.9854 716.0815,391.3335 Q717.4014,389.6816 719.9082,389.6816 Q720.6138,389.6816 721.2612,389.8311 Q721.9087,389.9805 722.4731,390.2793 L722.4731,393.002 Q721.8423,392.4209 721.2488,392.1511 Q720.6553,391.8813 720.0244,391.8813 Q718.6797,391.8813 717.9949,392.948 Q717.3101,394.0146 717.3101,396.1147 Q717.3101,398.2065 717.9949,399.2732 Q718.6797,400.3398 720.0244,400.3398 Q720.6553,400.3398 721.2488,400.0701 Q721.8423,399.8003 722.4731,399.2192 Z " fill="#000000"/><text fill="#000000" font-family="sans-serif" font-size="12" font-style="italic" lengthAdjust="spacing" textLength="43" x="808" y="392.0898">&#171;YAML&#187;</text><text fill="#000000" font-family="sans-serif" font-size="14" lengthAdjust="spacing" textLength="191" x="734" y="408.1563">map/levels/&lt;id&gt;/level.yaml</text></g><!--class LevelTmx--><g id="elem_LevelTmx"><rect codeLine="9" fill="#F1F1F1" height="40.6211" id="LevelTmx" rx="2.5" ry="2.5" style="stroke:#181818;stroke-width:0.5;" width="218" x="1702.5" y="237.9883"/><ellipse cx="1717.5" cy="258.2988" fill="#ADD1B2" rx="11" ry="11" style="stroke:#181818;stroke-width:1.0;"/><path d="M1719.9731,264.4419 Q1719.3921,264.7407 1718.7529,264.8901 Q1718.1138,265.0396 1717.4082,265.0396 Q1714.9014,265.0396 1713.5815,263.3877 Q1712.2617,261.7358 1712.2617,258.6147 Q1712.2617,255.4854 1713.5815,253.8335 Q1714.9014,252.1816 1717.4082,252.1816 Q1718.1138,252.1816 1718.7612,252.3311 Q1719.4087,252.4805 1719.9731,252.7793 L1719.9731,255.502 Q1719.3423,254.9209 1718.7488,254.6511 Q1718.1553,254.3813 1717.5244,254.3813 Q1716.1797,254.3813 1715.4949,255.448 Q1714.8101,256.5146 1714.8101,258.6147 Q1714.8101,260.7065 1715.4949,261.7732 Q1716.1797,262.8398 1717.5244,262.8398 Q1718.1553,262.8398 1718.7488,262.5701 Q1719.3423,262.3003 1719.9731,261.7192 Z " fill="#000000"/><text fill="#000000" font-family="sans-serif" font-size="12" font-style="italic" lengthAdjust="spacing" textLength="38" x="1805.5" y="254.5898">&#171;TMX&#187;</text><text fill="#000000" font-family="sans-serif" font-size="14" lengthAdjust="spacing" textLength="186" x="1731.5" y="270.6563">map/levels/&lt;id&gt;/level.tmx</text></g><g id="elem_GMN70"><path d="M946,352.4883 L946,439.041 A0,0 0 0 0 946,439.041 L1353,439.041 A0,0 0 0 0 1353,439.041 L1353,362.4883 L1343,352.4883 L1275.8386,352.4883 L1433.9994,295.8889 L1267.8386,352.4883 L946,352.4883 A0,0 0 0 0 946,352.4883 " fill="#FEFFDD" style="stroke:#181818;stroke-width:0.5;"/><path d="M1343,352.4883 L1343,362.4883 L1353,362.4883 L1343,352.4883 " fill="#FEFFDD" style="stroke:#181818;stroke-width:0.5;"/><text fill="#000000" font-family="sans-serif" font-size="13" lengthAdjust="spacing" textLength="165" x="952" y="370.0566">Pattern principale: Facade.</text><text fill="#000000" font-family="sans-serif" font-size="13" lengthAdjust="spacing" textLength="341" x="952" y="385.3672">SceneController nasconde catalogo, caricamento TMX,</text><text fill="#000000" font-family="sans-serif" font-size="13" lengthAdjust="spacing" textLength="381" x="952" y="400.6777">creazione del LevelRuntime e sostituzione della scena attiva.</text><text fill="#000000" font-family="sans-serif" font-size="13" lengthAdjust="spacing" textLength="330" x="952" y="415.9883">Factory non &#232; principale: crea collaboratori specifici,</text><text fill="#000000" font-family="sans-serif" font-size="13" lengthAdjust="spacing" textLength="386" x="952" y="431.2988">ma la force centrale &#232; orchestrare pi&#249; sottosistemi del livello.</text></g><!--class LevelAssetResolver--><g id="elem_LevelAssetResolver"><rect codeLine="12" fill="#F1F1F1" height="40.6211" id="LevelAssetResolver" rx="2.5" ry="2.5" style="stroke:#181818;stroke-width:0.5;" width="161" x="375" y="492.4883"/><ellipse cx="390" cy="512.7988" fill="#B4A7E5" rx="11" ry="11" style="stroke:#181818;stroke-width:1.0;"/><path d="M386.4277,509.064 L386.4277,506.9058 L393.8071,506.9058 L393.8071,509.064 L391.3418,509.064 L391.3418,517.1406 L393.8071,517.1406 L393.8071,519.2988 L386.4277,519.2988 L386.4277,517.1406 L388.8931,517.1406 L388.8931,509.064 Z " fill="#000000"/><text fill="#000000" font-family="sans-serif" font-size="12" font-style="italic" lengthAdjust="spacing" textLength="61" x="438" y="509.0898">&#171;Gateway&#187;</text><text fill="#000000" font-family="sans-serif" font-size="14" font-style="italic" lengthAdjust="spacing" textLength="129" x="404" y="525.1563">LevelAssetResolver</text></g><!--class LevelAssetResolvers--><g id="elem_LevelAssetResolvers"><rect codeLine="13" fill="#F1F1F1" height="40.6211" id="LevelAssetResolvers" rx="2.5" ry="2.5" style="stroke:#181818;stroke-width:0.5;" width="168" x="361.5" y="375.4883"/><ellipse cx="376.5" cy="395.7988" fill="#ADD1B2" rx="11" ry="11" style="stroke:#181818;stroke-width:1.0;"/><path d="M378.9731,401.9419 Q378.3921,402.2407 377.7529,402.3901 Q377.1138,402.5396 376.4082,402.5396 Q373.9014,402.5396 372.5815,400.8877 Q371.2617,399.2358 371.2617,396.1147 Q371.2617,392.9854 372.5815,391.3335 Q373.9014,389.6816 376.4082,389.6816 Q377.1138,389.6816 377.7612,389.8311 Q378.4087,389.9805 378.9731,390.2793 L378.9731,393.002 Q378.3423,392.4209 377.7488,392.1511 Q377.1553,391.8813 376.5244,391.8813 Q375.1797,391.8813 374.4949,392.948 Q373.8101,394.0146 373.8101,396.1147 Q373.8101,398.2065 374.4949,399.2732 Q375.1797,400.3398 376.5244,400.3398 Q377.1553,400.3398 377.7488,400.0701 Q378.3423,399.8003 378.9731,399.2192 Z " fill="#000000"/><text fill="#000000" font-family="sans-serif" font-size="12" font-style="italic" lengthAdjust="spacing" textLength="53" x="432" y="392.0898">&#171;Factory&#187;</text><text fill="#000000" font-family="sans-serif" font-size="14" lengthAdjust="spacing" textLength="136" x="390.5" y="408.1563">LevelAssetResolvers</text></g><!--class LevelCatalog--><g id="elem_LevelCatalog"><rect codeLine="14" fill="#F1F1F1" height="40.6211" id="LevelCatalog" rx="2.5" ry="2.5" style="stroke:#181818;stroke-width:0.5;" width="119" x="568" y="375.4883"/><ellipse cx="583" cy="395.7988" fill="#ADD1B2" rx="11" ry="11" style="stroke:#181818;stroke-width:1.0;"/><path d="M585.4731,401.9419 Q584.8921,402.2407 584.2529,402.3901 Q583.6138,402.5396 582.9082,402.5396 Q580.4014,402.5396 579.0815,400.8877 Q577.7617,399.2358 577.7617,396.1147 Q577.7617,392.9854 579.0815,391.3335 Q580.4014,389.6816 582.9082,389.6816 Q583.6138,389.6816 584.2612,389.8311 Q584.9087,389.9805 585.4731,390.2793 L585.4731,393.002 Q584.8423,392.4209 584.2488,392.1511 Q583.6553,391.8813 583.0244,391.8813 Q581.6797,391.8813 580.9949,392.948 Q580.3101,394.0146 580.3101,396.1147 Q580.3101,398.2065 580.9949,399.2732 Q581.6797,400.3398 583.0244,400.3398 Q583.6553,400.3398 584.2488,400.0701 Q584.8423,399.8003 585.4731,399.2192 Z " fill="#000000"/><text fill="#000000" font-family="sans-serif" font-size="12" font-style="italic" lengthAdjust="spacing" textLength="55" x="613" y="392.0898">&#171;Catalog&#187;</text><text fill="#000000" font-family="sans-serif" font-size="14" lengthAdjust="spacing" textLength="87" x="597" y="408.1563">LevelCatalog</text></g><!--class LevelManifest--><g id="elem_LevelManifest"><rect codeLine="15" fill="#F1F1F1" height="40.6211" id="LevelManifest" rx="2.5" ry="2.5" style="stroke:#181818;stroke-width:0.5;" width="124" x="563.5" y="87.4883"/><ellipse cx="578.5" cy="107.7988" fill="#ADD1B2" rx="11" ry="11" style="stroke:#181818;stroke-width:1.0;"/><path d="M580.9731,113.9419 Q580.3921,114.2407 579.7529,114.3901 Q579.1138,114.5396 578.4082,114.5396 Q575.9014,114.5396 574.5815,112.8877 Q573.2617,111.2358 573.2617,108.1147 Q573.2617,104.9854 574.5815,103.3335 Q575.9014,101.6816 578.4082,101.6816 Q579.1138,101.6816 579.7612,101.8311 Q580.4087,101.9805 580.9731,102.2793 L580.9731,105.002 Q580.3423,104.4209 579.7488,104.1511 Q579.1553,103.8813 578.5244,103.8813 Q577.1797,103.8813 576.4949,104.948 Q575.8101,106.0146 575.8101,108.1147 Q575.8101,110.2065 576.4949,111.2732 Q577.1797,112.3398 578.5244,112.3398 Q579.1553,112.3398 579.7488,112.0701 Q580.3423,111.8003 580.9731,111.2192 Z " fill="#000000"/><text fill="#000000" font-family="sans-serif" font-size="12" font-style="italic" lengthAdjust="spacing" textLength="38" x="619.5" y="104.0898">&#171;DTO&#187;</text><text fill="#000000" font-family="sans-serif" font-size="14" lengthAdjust="spacing" textLength="92" x="592.5" y="120.1563">LevelManifest</text></g><!--class LevelDefinition--><g id="elem_LevelDefinition"><rect codeLine="16" fill="#F1F1F1" height="40.6211" id="LevelDefinition" rx="2.5" ry="2.5" style="stroke:#181818;stroke-width:0.5;" width="133" x="554" y="492.4883"/><ellipse cx="569" cy="512.7988" fill="#ADD1B2" rx="11" ry="11" style="stroke:#181818;stroke-width:1.0;"/><path d="M571.4731,518.9419 Q570.8921,519.2407 570.2529,519.3901 Q569.6138,519.5396 568.9082,519.5396 Q566.4014,519.5396 565.0815,517.8877 Q563.7617,516.2358 563.7617,513.1147 Q563.7617,509.9854 565.0815,508.3335 Q566.4014,506.6816 568.9082,506.6816 Q569.6138,506.6816 570.2612,506.8311 Q570.9087,506.9805 571.4731,507.2793 L571.4731,510.002 Q570.8423,509.4209 570.2488,509.1511 Q569.6553,508.8813 569.0244,508.8813 Q567.6797,508.8813 566.9949,509.948 Q566.3101,511.0146 566.3101,513.1147 Q566.3101,515.2065 566.9949,516.2732 Q567.6797,517.3398 569.0244,517.3398 Q569.6553,517.3398 570.2488,517.0701 Q570.8423,516.8003 571.4731,516.2192 Z " fill="#000000"/><text fill="#000000" font-family="sans-serif" font-size="12" font-style="italic" lengthAdjust="spacing" textLength="38" x="614.5" y="509.0898">&#171;DTO&#187;</text><text fill="#000000" font-family="sans-serif" font-size="14" lengthAdjust="spacing" textLength="101" x="583" y="525.1563">LevelDefinition</text></g><!--class CheckpointDefinition--><g id="elem_CheckpointDefinition"><rect codeLine="17" fill="#F1F1F1" height="40.6211" id="CheckpointDefinition" rx="2.5" ry="2.5" style="stroke:#181818;stroke-width:0.5;" width="177" x="510" y="570.4883"/><ellipse cx="525" cy="590.7988" fill="#ADD1B2" rx="11" ry="11" style="stroke:#181818;stroke-width:1.0;"/><path d="M527.4731,596.9419 Q526.8921,597.2407 526.2529,597.3901 Q525.6138,597.5396 524.9082,597.5396 Q522.4014,597.5396 521.0815,595.8877 Q519.7617,594.2358 519.7617,591.1147 Q519.7617,587.9854 521.0815,586.3335 Q522.4014,584.6816 524.9082,584.6816 Q525.6138,584.6816 526.2612,584.8311 Q526.9087,584.9805 527.4731,585.2793 L527.4731,588.002 Q526.8423,587.4209 526.2488,587.1511 Q525.6553,586.8813 525.0244,586.8813 Q523.6797,586.8813 522.9949,587.948 Q522.3101,589.0146 522.3101,591.1147 Q522.3101,593.2065 522.9949,594.2732 Q523.6797,595.3398 525.0244,595.3398 Q525.6553,595.3398 526.2488,595.0701 Q526.8423,594.8003 527.4731,594.2192 Z " fill="#000000"/><text fill="#000000" font-family="sans-serif" font-size="12" font-style="italic" lengthAdjust="spacing" textLength="38" x="592.5" y="587.0898">&#171;DTO&#187;</text><text fill="#000000" font-family="sans-serif" font-size="14" lengthAdjust="spacing" textLength="145" x="539" y="603.1563">CheckpointDefinition</text></g><!--class LevelAssetValidator--><g id="elem_LevelAssetValidator"><rect codeLine="18" fill="#F1F1F1" height="40.6211" id="LevelAssetValidator" rx="2.5" ry="2.5" style="stroke:#181818;stroke-width:0.5;" width="165" x="442" y="237.9883"/><ellipse cx="457" cy="258.2988" fill="#ADD1B2" rx="11" ry="11" style="stroke:#181818;stroke-width:1.0;"/><path d="M459.4731,264.4419 Q458.8921,264.7407 458.2529,264.8901 Q457.6138,265.0396 456.9082,265.0396 Q454.4014,265.0396 453.0815,263.3877 Q451.7617,261.7358 451.7617,258.6147 Q451.7617,255.4854 453.0815,253.8335 Q454.4014,252.1816 456.9082,252.1816 Q457.6138,252.1816 458.2612,252.3311 Q458.9087,252.4805 459.4731,252.7793 L459.4731,255.502 Q458.8423,254.9209 458.2488,254.6511 Q457.6553,254.3813 457.0244,254.3813 Q455.6797,254.3813 454.9949,255.448 Q454.3101,256.5146 454.3101,258.6147 Q454.3101,260.7065 454.9949,261.7732 Q455.6797,262.8398 457.0244,262.8398 Q457.6553,262.8398 458.2488,262.5701 Q458.8423,262.3003 459.4731,261.7192 Z " fill="#000000"/><text fill="#000000" font-family="sans-serif" font-size="12" font-style="italic" lengthAdjust="spacing" textLength="64" x="505.5" y="254.5898">&#171;Validator&#187;</text><text fill="#000000" font-family="sans-serif" font-size="14" lengthAdjust="spacing" textLength="133" x="471" y="270.6563">LevelAssetValidator</text></g><!--class GameStartupValidator--><g id="elem_GameStartupValidator"><rect codeLine="19" fill="#F1F1F1" height="40.6211" id="GameStartupValidator" rx="2.5" ry="2.5" style="stroke:#181818;stroke-width:0.5;" width="183" x="362" y="87.4883"/><ellipse cx="377" cy="107.7988" fill="#ADD1B2" rx="11" ry="11" style="stroke:#181818;stroke-width:1.0;"/><path d="M379.4731,113.9419 Q378.8921,114.2407 378.2529,114.3901 Q377.6138,114.5396 376.9082,114.5396 Q374.4014,114.5396 373.0815,112.8877 Q371.7617,111.2358 371.7617,108.1147 Q371.7617,104.9854 373.0815,103.3335 Q374.4014,101.6816 376.9082,101.6816 Q377.6138,101.6816 378.2612,101.8311 Q378.9087,101.9805 379.4731,102.2793 L379.4731,105.002 Q378.8423,104.4209 378.2488,104.1511 Q377.6553,103.8813 377.0244,103.8813 Q375.6797,103.8813 374.9949,104.948 Q374.3101,106.0146 374.3101,108.1147 Q374.3101,110.2065 374.9949,111.2732 Q375.6797,112.3398 377.0244,112.3398 Q377.6553,112.3398 378.2488,112.0701 Q378.8423,111.8003 379.4731,111.2192 Z " fill="#000000"/><text fill="#000000" font-family="sans-serif" font-size="12" font-style="italic" lengthAdjust="spacing" textLength="64" x="434.5" y="104.0898">&#171;Validator&#187;</text><text fill="#000000" font-family="sans-serif" font-size="14" lengthAdjust="spacing" textLength="151" x="391" y="120.1563">GameStartupValidator</text></g><!--class LevelValidationResult--><g id="elem_LevelValidationResult"><rect codeLine="20" fill="#F1F1F1" height="40.6211" id="LevelValidationResult" rx="2.5" ry="2.5" style="stroke:#181818;stroke-width:0.5;" width="177" x="166" y="375.4883"/><ellipse cx="181" cy="395.7988" fill="#ADD1B2" rx="11" ry="11" style="stroke:#181818;stroke-width:1.0;"/><path d="M183.4731,401.9419 Q182.8921,402.2407 182.2529,402.3901 Q181.6138,402.5396 180.9082,402.5396 Q178.4014,402.5396 177.0815,400.8877 Q175.7617,399.2358 175.7617,396.1147 Q175.7617,392.9854 177.0815,391.3335 Q178.4014,389.6816 180.9082,389.6816 Q181.6138,389.6816 182.2612,389.8311 Q182.9087,389.9805 183.4731,390.2793 L183.4731,393.002 Q182.8423,392.4209 182.2488,392.1511 Q181.6553,391.8813 181.0244,391.8813 Q179.6797,391.8813 178.9949,392.948 Q178.3101,394.0146 178.3101,396.1147 Q178.3101,398.2065 178.9949,399.2732 Q179.6797,400.3398 181.0244,400.3398 Q181.6553,400.3398 182.2488,400.0701 Q182.8423,399.8003 183.4731,399.2192 Z " fill="#000000"/><text fill="#000000" font-family="sans-serif" font-size="12" font-style="italic" lengthAdjust="spacing" textLength="38" x="248.5" y="392.0898">&#171;DTO&#187;</text><text fill="#000000" font-family="sans-serif" font-size="14" lengthAdjust="spacing" textLength="145" x="195" y="408.1563">LevelValidationResult</text></g><!--class SceneController--><g id="elem_SceneController"><rect codeLine="24" fill="#F1F1F1" height="81.5977" id="SceneController" rx="2.5" ry="2.5" style="stroke:#181818;stroke-width:0.5;" width="209" x="1434" y="217.4883"/><ellipse cx="1476" cy="237.7988" fill="#ADD1B2" rx="11" ry="11" style="stroke:#181818;stroke-width:1.0;"/><path d="M1478.4731,243.9419 Q1477.8921,244.2407 1477.2529,244.3901 Q1476.6138,244.5396 1475.9082,244.5396 Q1473.4014,244.5396 1472.0815,242.8877 Q1470.7617,241.2358 1470.7617,238.1147 Q1470.7617,234.9854 1472.0815,233.3335 Q1473.4014,231.6816 1475.9082,231.6816 Q1476.6138,231.6816 1477.2612,231.8311 Q1477.9087,231.9805 1478.4731,232.2793 L1478.4731,235.002 Q1477.8423,234.4209 1477.2488,234.1511 Q1476.6553,233.8813 1476.0244,233.8813 Q1474.6797,233.8813 1473.9949,234.948 Q1473.3101,236.0146 1473.3101,238.1147 Q1473.3101,240.2065 1473.9949,241.2732 Q1474.6797,242.3398 1476.0244,242.3398 Q1476.6553,242.3398 1477.2488,242.0701 Q1477.8423,241.8003 1478.4731,241.2192 Z " fill="#000000"/><text fill="#000000" font-family="sans-serif" font-size="12" font-style="italic" lengthAdjust="spacing" textLength="121" x="1494" y="234.0898">&#171;Application Facade&#187;</text><text fill="#000000" font-family="sans-serif" font-size="14" lengthAdjust="spacing" textLength="110" x="1499.5" y="250.1563">SceneController</text><line style="stroke:#181818;stroke-width:0.5;" x1="1435" x2="1642" y1="258.1094" y2="258.1094"/><text fill="#000000" font-family="sans-serif" font-size="14" lengthAdjust="spacing" textLength="197" x="1440" y="275.6445">+loadLevel(id): LevelRuntime</text><text fill="#000000" font-family="sans-serif" font-size="14" lengthAdjust="spacing" textLength="193" x="1440" y="292.1328">+unloadCurrentLevel(): void</text></g><!--class TmxLevelLoader--><g id="elem_TmxLevelLoader"><rect codeLine="28" fill="#F1F1F1" height="40.6211" id="TmxLevelLoader" rx="2.5" ry="2.5" style="stroke:#181818;stroke-width:0.5;" width="144" x="1400.5" y="375.4883"/><ellipse cx="1415.5" cy="395.7988" fill="#ADD1B2" rx="11" ry="11" style="stroke:#181818;stroke-width:1.0;"/><path d="M1417.9731,401.9419 Q1417.3921,402.2407 1416.7529,402.3901 Q1416.1138,402.5396 1415.4082,402.5396 Q1412.9014,402.5396 1411.5815,400.8877 Q1410.2617,399.2358 1410.2617,396.1147 Q1410.2617,392.9854 1411.5815,391.3335 Q1412.9014,389.6816 1415.4082,389.6816 Q1416.1138,389.6816 1416.7612,389.8311 Q1417.4087,389.9805 1417.9731,390.2793 L1417.9731,393.002 Q1417.3423,392.4209 1416.7488,392.1511 Q1416.1553,391.8813 1415.5244,391.8813 Q1414.1797,391.8813 1413.4949,392.948 Q1412.8101,394.0146 1412.8101,396.1147 Q1412.8101,398.2065 1413.4949,399.2732 Q1414.1797,400.3398 1415.5244,400.3398 Q1416.1553,400.3398 1416.7488,400.0701 Q1417.3423,399.8003 1417.9731,399.2192 Z " fill="#000000"/><text fill="#000000" font-family="sans-serif" font-size="12" font-style="italic" lengthAdjust="spacing" textLength="52" x="1459.5" y="392.0898">&#171;Loader&#187;</text><text fill="#000000" font-family="sans-serif" font-size="14" lengthAdjust="spacing" textLength="112" x="1429.5" y="408.1563">TmxLevelLoader</text></g><!--class LevelRuntime--><g id="elem_LevelRuntime"><rect codeLine="29" fill="#F1F1F1" height="32" id="LevelRuntime" rx="2.5" ry="2.5" style="stroke:#181818;stroke-width:0.5;" width="123" x="1563" y="379.9883"/><ellipse cx="1578" cy="395.9883" fill="#ADD1B2" rx="11" ry="11" style="stroke:#181818;stroke-width:1.0;"/><path d="M1580.4731,402.1313 Q1579.8921,402.4302 1579.2529,402.5796 Q1578.6138,402.729 1577.9082,402.729 Q1575.4014,402.729 1574.0815,401.0771 Q1572.7617,399.4253 1572.7617,396.3042 Q1572.7617,393.1748 1574.0815,391.5229 Q1575.4014,389.8711 1577.9082,389.8711 Q1578.6138,389.8711 1579.2612,390.0205 Q1579.9087,390.1699 1580.4731,390.4688 L1580.4731,393.1914 Q1579.8423,392.6104 1579.2488,392.3406 Q1578.6553,392.0708 1578.0244,392.0708 Q1576.6797,392.0708 1575.9949,393.1375 Q1575.3101,394.2041 1575.3101,396.3042 Q1575.3101,398.396 1575.9949,399.4626 Q1576.6797,400.5293 1578.0244,400.5293 Q1578.6553,400.5293 1579.2488,400.2595 Q1579.8423,399.9897 1580.4731,399.4087 Z " fill="#000000"/><text fill="#000000" font-family="sans-serif" font-size="14" lengthAdjust="spacing" textLength="91" x="1592" y="401.2793">LevelRuntime</text></g><!--class TmxLevel--><g id="elem_TmxLevel"><rect codeLine="30" fill="#F1F1F1" height="32" id="TmxLevel" rx="2.5" ry="2.5" style="stroke:#181818;stroke-width:0.5;" width="97" x="1583" y="496.9883"/><ellipse cx="1598" cy="512.9883" fill="#ADD1B2" rx="11" ry="11" style="stroke:#181818;stroke-width:1.0;"/><path d="M1600.4731,519.1313 Q1599.8921,519.4302 1599.2529,519.5796 Q1598.6138,519.729 1597.9082,519.729 Q1595.4014,519.729 1594.0815,518.0771 Q1592.7617,516.4253 1592.7617,513.3042 Q1592.7617,510.1748 1594.0815,508.5229 Q1595.4014,506.8711 1597.9082,506.8711 Q1598.6138,506.8711 1599.2612,507.0205 Q1599.9087,507.1699 1600.4731,507.4688 L1600.4731,510.1914 Q1599.8423,509.6104 1599.2488,509.3406 Q1598.6553,509.0708 1598.0244,509.0708 Q1596.6797,509.0708 1595.9949,510.1375 Q1595.3101,511.2041 1595.3101,513.3042 Q1595.3101,515.396 1595.9949,516.4626 Q1596.6797,517.5293 1598.0244,517.5293 Q1598.6553,517.5293 1599.2488,517.2595 Q1599.8423,516.9897 1600.4731,516.4087 Z " fill="#000000"/><text fill="#000000" font-family="sans-serif" font-size="14" lengthAdjust="spacing" textLength="65" x="1612" y="518.2793">TmxLevel</text></g><!--class TmxMapContract--><g id="elem_TmxMapContract"><rect codeLine="31" fill="#F1F1F1" height="40.6211" id="TmxMapContract" rx="2.5" ry="2.5" style="stroke:#181818;stroke-width:0.5;" width="151" x="1370" y="570.4883"/><ellipse cx="1385" cy="590.7988" fill="#ADD1B2" rx="11" ry="11" style="stroke:#181818;stroke-width:1.0;"/><path d="M1387.4731,596.9419 Q1386.8921,597.2407 1386.2529,597.3901 Q1385.6138,597.5396 1384.9082,597.5396 Q1382.4014,597.5396 1381.0815,595.8877 Q1379.7617,594.2358 1379.7617,591.1147 Q1379.7617,587.9854 1381.0815,586.3335 Q1382.4014,584.6816 1384.9082,584.6816 Q1385.6138,584.6816 1386.2612,584.8311 Q1386.9087,584.9805 1387.4731,585.2793 L1387.4731,588.002 Q1386.8423,587.4209 1386.2488,587.1511 Q1385.6553,586.8813 1385.0244,586.8813 Q1383.6797,586.8813 1382.9949,587.948 Q1382.3101,589.0146 1382.3101,591.1147 Q1382.3101,593.2065 1382.9949,594.2732 Q1383.6797,595.3398 1385.0244,595.3398 Q1385.6553,595.3398 1386.2488,595.0701 Q1386.8423,594.8003 1387.4731,594.2192 Z " fill="#000000"/><text fill="#000000" font-family="sans-serif" font-size="12" font-style="italic" lengthAdjust="spacing" textLength="60" x="1428.5" y="587.0898">&#171;Contract&#187;</text><text fill="#000000" font-family="sans-serif" font-size="14" lengthAdjust="spacing" textLength="119" x="1399" y="603.1563">TmxMapContract</text></g><!--class IsoMapGeometry--><g id="elem_IsoMapGeometry"><rect codeLine="32" fill="#F1F1F1" height="40.6211" id="IsoMapGeometry" rx="2.5" ry="2.5" style="stroke:#181818;stroke-width:0.5;" width="147" x="1539" y="570.4883"/><ellipse cx="1554" cy="590.7988" fill="#ADD1B2" rx="11" ry="11" style="stroke:#181818;stroke-width:1.0;"/><path d="M1556.4731,596.9419 Q1555.8921,597.2407 1555.2529,597.3901 Q1554.6138,597.5396 1553.9082,597.5396 Q1551.4014,597.5396 1550.0815,595.8877 Q1548.7617,594.2358 1548.7617,591.1147 Q1548.7617,587.9854 1550.0815,586.3335 Q1551.4014,584.6816 1553.9082,584.6816 Q1554.6138,584.6816 1555.2612,584.8311 Q1555.9087,584.9805 1556.4731,585.2793 L1556.4731,588.002 Q1555.8423,587.4209 1555.2488,587.1511 Q1554.6553,586.8813 1554.0244,586.8813 Q1552.6797,586.8813 1551.9949,587.948 Q1551.3101,589.0146 1551.3101,591.1147 Q1551.3101,593.2065 1551.9949,594.2732 Q1552.6797,595.3398 1554.0244,595.3398 Q1554.6553,595.3398 1555.2488,595.0701 Q1555.8423,594.8003 1556.4731,594.2192 Z " fill="#000000"/><text fill="#000000" font-family="sans-serif" font-size="12" font-style="italic" lengthAdjust="spacing" textLength="52" x="1599.5" y="587.0898">&#171;Service&#187;</text><text fill="#000000" font-family="sans-serif" font-size="14" lengthAdjust="spacing" textLength="115" x="1568" y="603.1563">IsoMapGeometry</text></g><!--class PhysicsFacade--><g id="elem_PhysicsFacade"><rect codeLine="36" fill="#F1F1F1" height="40.6211" id="PhysicsFacade" rx="2.5" ry="2.5" style="stroke:#181818;stroke-width:0.5;" width="129" x="1937" y="375.4883"/><ellipse cx="1952" cy="395.7988" fill="#ADD1B2" rx="11" ry="11" style="stroke:#181818;stroke-width:1.0;"/><path d="M1954.4731,401.9419 Q1953.8921,402.2407 1953.2529,402.3901 Q1952.6138,402.5396 1951.9082,402.5396 Q1949.4014,402.5396 1948.0815,400.8877 Q1946.7617,399.2358 1946.7617,396.1147 Q1946.7617,392.9854 1948.0815,391.3335 Q1949.4014,389.6816 1951.9082,389.6816 Q1952.6138,389.6816 1953.2612,389.8311 Q1953.9087,389.9805 1954.4731,390.2793 L1954.4731,393.002 Q1953.8423,392.4209 1953.2488,392.1511 Q1952.6553,391.8813 1952.0244,391.8813 Q1950.6797,391.8813 1949.9949,392.948 Q1949.3101,394.0146 1949.3101,396.1147 Q1949.3101,398.2065 1949.9949,399.2732 Q1950.6797,400.3398 1952.0244,400.3398 Q1952.6553,400.3398 1953.2488,400.0701 Q1953.8423,399.8003 1954.4731,399.2192 Z " fill="#000000"/><text fill="#000000" font-family="sans-serif" font-size="12" font-style="italic" lengthAdjust="spacing" textLength="53" x="1988" y="392.0898">&#171;Facade&#187;</text><text fill="#000000" font-family="sans-serif" font-size="14" lengthAdjust="spacing" textLength="97" x="1966" y="408.1563">PhysicsFacade</text></g><!--class MapPhysicsBuilder--><g id="elem_MapPhysicsBuilder"><rect codeLine="37" fill="#F1F1F1" height="40.6211" id="MapPhysicsBuilder" rx="2.5" ry="2.5" style="stroke:#181818;stroke-width:0.5;" width="158" x="1936.5" y="492.4883"/><ellipse cx="1951.5" cy="512.7988" fill="#ADD1B2" rx="11" ry="11" style="stroke:#181818;stroke-width:1.0;"/><path d="M1953.9731,518.9419 Q1953.3921,519.2407 1952.7529,519.3901 Q1952.1138,519.5396 1951.4082,519.5396 Q1948.9014,519.5396 1947.5815,517.8877 Q1946.2617,516.2358 1946.2617,513.1147 Q1946.2617,509.9854 1947.5815,508.3335 Q1948.9014,506.6816 1951.4082,506.6816 Q1952.1138,506.6816 1952.7612,506.8311 Q1953.4087,506.9805 1953.9731,507.2793 L1953.9731,510.002 Q1953.3423,509.4209 1952.7488,509.1511 Q1952.1553,508.8813 1951.5244,508.8813 Q1950.1797,508.8813 1949.4949,509.948 Q1948.8101,511.0146 1948.8101,513.1147 Q1948.8101,515.2065 1949.4949,516.2732 Q1950.1797,517.3398 1951.5244,517.3398 Q1952.1553,517.3398 1952.7488,517.0701 Q1953.3423,516.8003 1953.9731,516.2192 Z " fill="#000000"/><text fill="#000000" font-family="sans-serif" font-size="12" font-style="italic" lengthAdjust="spacing" textLength="52" x="2002.5" y="509.0898">&#171;Builder&#187;</text><text fill="#000000" font-family="sans-serif" font-size="14" lengthAdjust="spacing" textLength="126" x="1965.5" y="525.1563">MapPhysicsBuilder</text></g><!--class EnemyEncounterService--><g id="elem_EnemyEncounterService"><rect codeLine="38" fill="#F1F1F1" height="40.6211" id="EnemyEncounterService" rx="2.5" ry="2.5" style="stroke:#181818;stroke-width:0.5;" width="195" x="2459" y="375.4883"/><ellipse cx="2474" cy="395.7988" fill="#ADD1B2" rx="11" ry="11" style="stroke:#181818;stroke-width:1.0;"/><path d="M2476.4731,401.9419 Q2475.8921,402.2407 2475.2529,402.3901 Q2474.6138,402.5396 2473.9082,402.5396 Q2471.4014,402.5396 2470.0815,400.8877 Q2468.7617,399.2358 2468.7617,396.1147 Q2468.7617,392.9854 2470.0815,391.3335 Q2471.4014,389.6816 2473.9082,389.6816 Q2474.6138,389.6816 2475.2612,389.8311 Q2475.9087,389.9805 2476.4731,390.2793 L2476.4731,393.002 Q2475.8423,392.4209 2475.2488,392.1511 Q2474.6553,391.8813 2474.0244,391.8813 Q2472.6797,391.8813 2471.9949,392.948 Q2471.3101,394.0146 2471.3101,396.1147 Q2471.3101,398.2065 2471.9949,399.2732 Q2472.6797,400.3398 2474.0244,400.3398 Q2474.6553,400.3398 2475.2488,400.0701 Q2475.8423,399.8003 2476.4731,399.2192 Z " fill="#000000"/><text fill="#000000" font-family="sans-serif" font-size="12" font-style="italic" lengthAdjust="spacing" textLength="52" x="2543.5" y="392.0898">&#171;Service&#187;</text><text fill="#000000" font-family="sans-serif" font-size="14" lengthAdjust="spacing" textLength="163" x="2488" y="408.1563">EnemyEncounterService</text></g><!--class CheckpointService--><g id="elem_CheckpointService"><rect codeLine="39" fill="#F1F1F1" height="40.6211" id="CheckpointService" rx="2.5" ry="2.5" style="stroke:#181818;stroke-width:0.5;" width="158" x="2282.5" y="375.4883"/><ellipse cx="2297.5" cy="395.7988" fill="#ADD1B2" rx="11" ry="11" style="stroke:#181818;stroke-width:1.0;"/><path d="M2299.9731,401.9419 Q2299.3921,402.2407 2298.7529,402.3901 Q2298.1138,402.5396 2297.4082,402.5396 Q2294.9014,402.5396 2293.5815,400.8877 Q2292.2617,399.2358 2292.2617,396.1147 Q2292.2617,392.9854 2293.5815,391.3335 Q2294.9014,389.6816 2297.4082,389.6816 Q2298.1138,389.6816 2298.7612,389.8311 Q2299.4087,389.9805 2299.9731,390.2793 L2299.9731,393.002 Q2299.3423,392.4209 2298.7488,392.1511 Q2298.1553,391.8813 2297.5244,391.8813 Q2296.1797,391.8813 2295.4949,392.948 Q2294.8101,394.0146 2294.8101,396.1147 Q2294.8101,398.2065 2295.4949,399.2732 Q2296.1797,400.3398 2297.5244,400.3398 Q2298.1553,400.3398 2298.7488,400.0701 Q2299.3423,399.8003 2299.9731,399.2192 Z " fill="#000000"/><text fill="#000000" font-family="sans-serif" font-size="12" font-style="italic" lengthAdjust="spacing" textLength="52" x="2348.5" y="392.0898">&#171;Service&#187;</text><text fill="#000000" font-family="sans-serif" font-size="14" lengthAdjust="spacing" textLength="126" x="2311.5" y="408.1563">CheckpointService</text></g><!--class TmxCollectibleLoader--><g id="elem_TmxCollectibleLoader"><rect codeLine="40" fill="#F1F1F1" height="40.6211" id="TmxCollectibleLoader" rx="2.5" ry="2.5" style="stroke:#181818;stroke-width:0.5;" width="182" x="2842.5" y="375.4883"/><ellipse cx="2857.5" cy="395.7988" fill="#ADD1B2" rx="11" ry="11" style="stroke:#181818;stroke-width:1.0;"/><path d="M2859.9731,401.9419 Q2859.3921,402.2407 2858.7529,402.3901 Q2858.1138,402.5396 2857.4082,402.5396 Q2854.9014,402.5396 2853.5815,400.8877 Q2852.2617,399.2358 2852.2617,396.1147 Q2852.2617,392.9854 2853.5815,391.3335 Q2854.9014,389.6816 2857.4082,389.6816 Q2858.1138,389.6816 2858.7612,389.8311 Q2859.4087,389.9805 2859.9731,390.2793 L2859.9731,393.002 Q2859.3423,392.4209 2858.7488,392.1511 Q2858.1553,391.8813 2857.5244,391.8813 Q2856.1797,391.8813 2855.4949,392.948 Q2854.8101,394.0146 2854.8101,396.1147 Q2854.8101,398.2065 2855.4949,399.2732 Q2856.1797,400.3398 2857.5244,400.3398 Q2858.1553,400.3398 2858.7488,400.0701 Q2859.3423,399.8003 2859.9731,399.2192 Z " fill="#000000"/><text fill="#000000" font-family="sans-serif" font-size="12" font-style="italic" lengthAdjust="spacing" textLength="52" x="2920.5" y="392.0898">&#171;Loader&#187;</text><text fill="#000000" font-family="sans-serif" font-size="14" lengthAdjust="spacing" textLength="150" x="2871.5" y="408.1563">TmxCollectibleLoader</text></g><!--class CollectibleService--><g id="elem_CollectibleService"><rect codeLine="41" fill="#F1F1F1" height="40.6211" id="CollectibleService" rx="2.5" ry="2.5" style="stroke:#181818;stroke-width:0.5;" width="152" x="2672.5" y="375.4883"/><ellipse cx="2687.5" cy="395.7988" fill="#ADD1B2" rx="11" ry="11" style="stroke:#181818;stroke-width:1.0;"/><path d="M2689.9731,401.9419 Q2689.3921,402.2407 2688.7529,402.3901 Q2688.1138,402.5396 2687.4082,402.5396 Q2684.9014,402.5396 2683.5815,400.8877 Q2682.2617,399.2358 2682.2617,396.1147 Q2682.2617,392.9854 2683.5815,391.3335 Q2684.9014,389.6816 2687.4082,389.6816 Q2688.1138,389.6816 2688.7612,389.8311 Q2689.4087,389.9805 2689.9731,390.2793 L2689.9731,393.002 Q2689.3423,392.4209 2688.7488,392.1511 Q2688.1553,391.8813 2687.5244,391.8813 Q2686.1797,391.8813 2685.4949,392.948 Q2684.8101,394.0146 2684.8101,396.1147 Q2684.8101,398.2065 2685.4949,399.2732 Q2686.1797,400.3398 2687.5244,400.3398 Q2688.1553,400.3398 2688.7488,400.0701 Q2689.3423,399.8003 2689.9731,399.2192 Z " fill="#000000"/><text fill="#000000" font-family="sans-serif" font-size="12" font-style="italic" lengthAdjust="spacing" textLength="52" x="2735.5" y="392.0898">&#171;Service&#187;</text><text fill="#000000" font-family="sans-serif" font-size="14" lengthAdjust="spacing" textLength="120" x="2701.5" y="408.1563">CollectibleService</text></g><!--class NpcInteractionService--><g id="elem_NpcInteractionService"><rect codeLine="42" fill="#F1F1F1" height="40.6211" id="NpcInteractionService" rx="2.5" ry="2.5" style="stroke:#181818;stroke-width:0.5;" width="180" x="2084.5" y="375.4883"/><ellipse cx="2099.5" cy="395.7988" fill="#ADD1B2" rx="11" ry="11" style="stroke:#181818;stroke-width:1.0;"/><path d="M2101.9731,401.9419 Q2101.3921,402.2407 2100.7529,402.3901 Q2100.1138,402.5396 2099.4082,402.5396 Q2096.9014,402.5396 2095.5815,400.8877 Q2094.2617,399.2358 2094.2617,396.1147 Q2094.2617,392.9854 2095.5815,391.3335 Q2096.9014,389.6816 2099.4082,389.6816 Q2100.1138,389.6816 2100.7612,389.8311 Q2101.4087,389.9805 2101.9731,390.2793 L2101.9731,393.002 Q2101.3423,392.4209 2100.7488,392.1511 Q2100.1553,391.8813 2099.5244,391.8813 Q2098.1797,391.8813 2097.4949,392.948 Q2096.8101,394.0146 2096.8101,396.1147 Q2096.8101,398.2065 2097.4949,399.2732 Q2098.1797,400.3398 2099.5244,400.3398 Q2100.1553,400.3398 2100.7488,400.0701 Q2101.3423,399.8003 2101.9731,399.2192 Z " fill="#000000"/><text fill="#000000" font-family="sans-serif" font-size="12" font-style="italic" lengthAdjust="spacing" textLength="52" x="2161.5" y="392.0898">&#171;Service&#187;</text><text fill="#000000" font-family="sans-serif" font-size="14" lengthAdjust="spacing" textLength="148" x="2113.5" y="408.1563">NpcInteractionService</text></g><!--class LevelScreen--><g id="elem_LevelScreen"><rect codeLine="43" fill="#F1F1F1" height="40.6211" id="LevelScreen" rx="2.5" ry="2.5" style="stroke:#181818;stroke-width:0.5;" width="112" x="2118.5" y="237.9883"/><ellipse cx="2133.5" cy="258.2988" fill="#ADD1B2" rx="11" ry="11" style="stroke:#181818;stroke-width:1.0;"/><path d="M2135.9731,264.4419 Q2135.3921,264.7407 2134.7529,264.8901 Q2134.1138,265.0396 2133.4082,265.0396 Q2130.9014,265.0396 2129.5815,263.3877 Q2128.2617,261.7358 2128.2617,258.6147 Q2128.2617,255.4854 2129.5815,253.8335 Q2130.9014,252.1816 2133.4082,252.1816 Q2134.1138,252.1816 2134.7612,252.3311 Q2135.4087,252.4805 2135.9731,252.7793 L2135.9731,255.502 Q2135.3423,254.9209 2134.7488,254.6511 Q2134.1553,254.3813 2133.5244,254.3813 Q2132.1797,254.3813 2131.4949,255.448 Q2130.8101,256.5146 2130.8101,258.6147 Q2130.8101,260.7065 2131.4949,261.7732 Q2132.1797,262.8398 2133.5244,262.8398 Q2134.1553,262.8398 2134.7488,262.5701 Q2135.3423,262.3003 2135.9731,261.7192 Z " fill="#000000"/><text fill="#000000" font-family="sans-serif" font-size="12" font-style="italic" lengthAdjust="spacing" textLength="66" x="2154.5" y="254.5898">&#171;Boundary&#187;</text><text fill="#000000" font-family="sans-serif" font-size="14" lengthAdjust="spacing" textLength="80" x="2147.5" y="270.6563">LevelScreen</text></g><!--class CharacterFactory--><g id="elem_CharacterFactory"><rect codeLine="44" fill="#F1F1F1" height="40.6211" id="CharacterFactory" rx="2.5" ry="2.5" style="stroke:#181818;stroke-width:0.5;" width="149" x="2482" y="492.4883"/><ellipse cx="2497" cy="512.7988" fill="#ADD1B2" rx="11" ry="11" style="stroke:#181818;stroke-width:1.0;"/><path d="M2499.4731,518.9419 Q2498.8921,519.2407 2498.2529,519.3901 Q2497.6138,519.5396 2496.9082,519.5396 Q2494.4014,519.5396 2493.0815,517.8877 Q2491.7617,516.2358 2491.7617,513.1147 Q2491.7617,509.9854 2493.0815,508.3335 Q2494.4014,506.6816 2496.9082,506.6816 Q2497.6138,506.6816 2498.2612,506.8311 Q2498.9087,506.9805 2499.4731,507.2793 L2499.4731,510.002 Q2498.8423,509.4209 2498.2488,509.1511 Q2497.6553,508.8813 2497.0244,508.8813 Q2495.6797,508.8813 2494.9949,509.948 Q2494.3101,511.0146 2494.3101,513.1147 Q2494.3101,515.2065 2494.9949,516.2732 Q2495.6797,517.3398 2497.0244,517.3398 Q2497.6553,517.3398 2498.2488,517.0701 Q2498.8423,516.8003 2499.4731,516.2192 Z " fill="#000000"/><text fill="#000000" font-family="sans-serif" font-size="12" font-style="italic" lengthAdjust="spacing" textLength="59" x="2540" y="509.0898">&#171;external&#187;</text><text fill="#000000" font-family="sans-serif" font-size="14" lengthAdjust="spacing" textLength="117" x="2511" y="525.1563">CharacterFactory</text></g><!--class CollectibleFactory--><g id="elem_CollectibleFactory"><rect codeLine="45" fill="#F1F1F1" height="40.6211" id="CollectibleFactory" rx="2.5" ry="2.5" style="stroke:#181818;stroke-width:0.5;" width="154" x="2856.5" y="492.4883"/><ellipse cx="2871.5" cy="512.7988" fill="#ADD1B2" rx="11" ry="11" style="stroke:#181818;stroke-width:1.0;"/><path d="M2873.9731,518.9419 Q2873.3921,519.2407 2872.7529,519.3901 Q2872.1138,519.5396 2871.4082,519.5396 Q2868.9014,519.5396 2867.5815,517.8877 Q2866.2617,516.2358 2866.2617,513.1147 Q2866.2617,509.9854 2867.5815,508.3335 Q2868.9014,506.6816 2871.4082,506.6816 Q2872.1138,506.6816 2872.7612,506.8311 Q2873.4087,506.9805 2873.9731,507.2793 L2873.9731,510.002 Q2873.3423,509.4209 2872.7488,509.1511 Q2872.1553,508.8813 2871.5244,508.8813 Q2870.1797,508.8813 2869.4949,509.948 Q2868.8101,511.0146 2868.8101,513.1147 Q2868.8101,515.2065 2869.4949,516.2732 Q2870.1797,517.3398 2871.5244,517.3398 Q2872.1553,517.3398 2872.7488,517.0701 Q2873.3423,516.8003 2873.9731,516.2192 Z " fill="#000000"/><text fill="#000000" font-family="sans-serif" font-size="12" font-style="italic" lengthAdjust="spacing" textLength="59" x="2917" y="509.0898">&#171;external&#187;</text><text fill="#000000" font-family="sans-serif" font-size="14" lengthAdjust="spacing" textLength="122" x="2885.5" y="525.1563">CollectibleFactory</text></g><!--class NpcFactory--><g id="elem_NpcFactory"><rect codeLine="46" fill="#F1F1F1" height="40.6211" id="NpcFactory" rx="2.5" ry="2.5" style="stroke:#181818;stroke-width:0.5;" width="108" x="2120.5" y="492.4883"/><ellipse cx="2135.5" cy="512.7988" fill="#ADD1B2" rx="11" ry="11" style="stroke:#181818;stroke-width:1.0;"/><path d="M2137.9731,518.9419 Q2137.3921,519.2407 2136.7529,519.3901 Q2136.1138,519.5396 2135.4082,519.5396 Q2132.9014,519.5396 2131.5815,517.8877 Q2130.2617,516.2358 2130.2617,513.1147 Q2130.2617,509.9854 2131.5815,508.3335 Q2132.9014,506.6816 2135.4082,506.6816 Q2136.1138,506.6816 2136.7612,506.8311 Q2137.4087,506.9805 2137.9731,507.2793 L2137.9731,510.002 Q2137.3423,509.4209 2136.7488,509.1511 Q2136.1553,508.8813 2135.5244,508.8813 Q2134.1797,508.8813 2133.4949,509.948 Q2132.8101,511.0146 2132.8101,513.1147 Q2132.8101,515.2065 2133.4949,516.2732 Q2134.1797,517.3398 2135.5244,517.3398 Q2136.1553,517.3398 2136.7488,517.0701 Q2137.3423,516.8003 2137.9731,516.2192 Z " fill="#000000"/><text fill="#000000" font-family="sans-serif" font-size="12" font-style="italic" lengthAdjust="spacing" textLength="59" x="2158" y="509.0898">&#171;external&#187;</text><text fill="#000000" font-family="sans-serif" font-size="14" lengthAdjust="spacing" textLength="76" x="2149.5" y="525.1563">NpcFactory</text></g><polygon fill="#181818" points="592.9876,375.438,586.8239,367.7562,588.5443,373.1451,583.1554,374.8654,592.9876,375.438" style="stroke:#181818;stroke-width:1.0;"/><path d="M108.5918,278.9946 C121.9506,286.5315 138.0256,294.5205 153.5,299.4883 C317.9579,352.2848 373.0447,302.906 538.5,352.4883 C557.1984,358.0917 571.5605,364.381 587.6556,372.6865 " fill="none" style="stroke:#181818;stroke-width:1.0;"/><polygon fill="#181818" points="653.9118,492.3844,663.6986,491.2799,658.2243,489.8541,659.6501,484.3799,653.9118,492.3844" style="stroke:#181818;stroke-width:1.0;"/><path d="M783.2513,416.4965 C747.2093,437.6435 695.1925,468.1636 659.0868,489.3481 " fill="none" style="stroke:#181818;stroke-width:1.0;"/><polygon fill="#181818" points="614.8345,533.5602,609.3238,538.2113,611.4978,545.0869,617.0084,540.4358,614.8345,533.5602" style="stroke:#181818;stroke-width:1.0;"/><path d="M611.4978,545.0869 C608.2131,556.434 607.4278,559.1469 604.1463,570.4827 " fill="none" style="stroke:#181818;stroke-width:1.0;"/><text fill="#000000" font-family="sans-serif" font-size="13" lengthAdjust="spacing" textLength="22" x="581.1463" y="567.0511">0..*</text><polygon fill="#181818" points="626.3125,416.4965,621.9554,422.2424,625.5835,428.4743,629.9406,422.7284,626.3125,416.4965" style="stroke:#181818;stroke-width:1.0;"/><path d="M625.5835,428.4743 C624.2962,449.6214 622.9828,471.2 621.6933,492.3844 " fill="none" style="stroke:#181818;stroke-width:1.0;"/><text fill="#000000" font-family="sans-serif" font-size="13" lengthAdjust="spacing" textLength="22" x="598.6933" y="488.9528">1..*</text><polygon fill="#181818" points="518.9686,492.4441,528.8147,492.6775,523.5845,490.5222,525.7397,485.2921,518.9686,492.4441" style="stroke:#181818;stroke-width:1.0;"/><path d="M612.9789,416.5371 C599.2874,433.7985 577.3538,458.621 553.5,474.4883 C542.9584,481.5004 536.4567,485.1629 524.5077,490.1379 " fill="none" style="stroke:#181818;stroke-width:1.0;"/><polygon fill="#181818" points="453.7953,492.3844,457.0006,483.0717,453.3622,487.4032,449.0307,483.7648,453.7953,492.3844" style="stroke:#181818;stroke-width:1.0;"/><path d="M447.1964,416.4965 C449.0352,437.6435 451.4334,465.2225 453.2755,486.407 " fill="none" style="stroke:#181818;stroke-width:1.0;stroke-dasharray:7.0,7.0;"/><polygon fill="#181818" points="489.4031,492.4612,499.0838,490.6492,493.5205,489.6245,494.5452,484.0612,489.4031,492.4612" style="stroke:#181818;stroke-width:1.0;"/><path d="M532.0036,279.2117 C543.7965,313.5283 562.9375,385.6947 538.5,439.4883 C528.3708,461.7855 512.5617,476.5065 494.344,489.0572 " fill="none" style="stroke:#181818;stroke-width:1.0;"/><polygon fill="#181818" points="612.5048,375.2616,610.2428,365.6761,609.4791,371.2811,603.874,370.5173,612.5048,375.2616" style="stroke:#181818;stroke-width:1.0;"/><path d="M539.4771,279.1911 C559.0052,304.881 589.3369,344.7834 608.8739,370.485 " fill="none" style="stroke:#181818;stroke-width:1.0;"/><polygon fill="#181818" points="293.4602,375.4361,303.2982,374.9743,297.929,373.1934,299.7099,367.8242,293.4602,375.4361" style="stroke:#181818;stroke-width:1.0;"/><path d="M485.528,279.0464 C434.2688,304.771 350.0761,347.0232 298.8227,372.7448 " fill="none" style="stroke:#181818;stroke-width:1.0;stroke-dasharray:7.0,7.0;"/><polygon fill="#181818" points="515.0328,237.6871,514.7594,227.842,512.876,233.1761,507.5419,231.2928,515.0328,237.6871" style="stroke:#181818;stroke-width:1.0;"/><path d="M462.9283,128.7079 C476.508,157.1106 498.8433,203.8259 512.4447,232.274 " fill="none" style="stroke:#181818;stroke-width:1.0;"/><polygon fill="#181818" points="652.8979,375.2919,662.5763,373.4675,657.0117,372.45,658.0292,366.8854,652.8979,375.2919" style="stroke:#181818;stroke-width:1.0;"/><path d="M1433.7192,265.2117 C1239.1079,276.8011 829.4647,305.9668 695.5,352.4883 C680.3761,357.7403 670.0544,363.4398 657.8345,371.8816 " fill="none" style="stroke:#181818;stroke-width:1.0;"/><polygon fill="#181818" points="1482.0441,375.394,1489.5813,369.0544,1484.2336,370.8989,1482.3891,365.5512,1482.0441,375.394" style="stroke:#181818;stroke-width:1.0;"/><path d="M1518.8765,299.7759 C1506.7171,324.7395 1494.2686,350.2968 1484.6715,369.9998 " fill="none" style="stroke:#181818;stroke-width:1.0;"/><polygon fill="#181818" points="1564.07,299.7759,1563.908,306.9852,1570.5004,309.9075,1570.6624,302.6982,1564.07,299.7759" style="stroke:#181818;stroke-width:1.0;"/><path d="M1570.5004,309.9075 C1587.6318,336.8994 1602.7758,360.76 1614.9647,379.9646 " fill="none" style="stroke:#181818;stroke-width:1.0;"/><text fill="#000000" font-family="sans-serif" font-size="13" lengthAdjust="spacing" textLength="75" x="1585.5" y="331.0566">scena attiva</text><polygon fill="#181818" points="1610.5014,496.8006,1605.5531,488.2851,1606.45,493.8704,1600.8647,494.7673,1610.5014,496.8006" style="stroke:#181818;stroke-width:1.0;"/><path d="M1499.4722,416.4965 C1530.8367,439.1815 1577.0833,472.6303 1605.6397,493.2843 " fill="none" style="stroke:#181818;stroke-width:1.0;stroke-dasharray:7.0,7.0;"/><polygon fill="#181818" points="1604.894,412.1274,1597.6857,412.3251,1595.0957,419.0551,1602.3041,418.8573,1604.894,412.1274" style="stroke:#181818;stroke-width:1.0;"/><path d="M1595.0957,419.0551 C1581.4694,428.6892 1572.2524,433.513 1553.5,439.4883 C1391.8318,491.0019 872.8608,506.7186 687.2727,510.7593 " fill="none" style="stroke:#181818;stroke-width:1.0;"/><polygon fill="#181818" points="1625.4151,412.0225,1621.7871,418.2545,1626.1442,424.0004,1629.7723,417.7684,1625.4151,412.0225" style="stroke:#181818;stroke-width:1.0;"/><path d="M1626.1442,424.0004 C1627.4858,446.04 1629.243,474.9086 1630.5846,496.9503 " fill="none" style="stroke:#181818;stroke-width:1.0;"/><polygon fill="#181818" points="1504.1479,375.3245,1513.9511,374.3772,1508.5005,372.8638,1510.0139,367.4131,1504.1479,375.3245" style="stroke:#181818;stroke-width:1.0;"/><path d="M1780.5747,279.038 C1751.8504,296.2901 1707.3334,320.7666 1665.5,334.4883 C1617.5947,350.2016 1601.3368,336.5678 1553.5,352.4883 C1536.473,358.155 1523.9188,364.1468 1509.371,372.3716 " fill="none" style="stroke:#181818;stroke-width:1.0;"/><polygon fill="#181818" points="1627.7462,529.0034,1622.4104,533.8541,1624.8358,540.6451,1630.1716,535.7944,1627.7462,529.0034" style="stroke:#181818;stroke-width:1.0;"/><path d="M1624.8358,540.6451 C1621.8725,552.4982 1620.6249,557.4886 1617.3995,570.3902 " fill="none" style="stroke:#181818;stroke-width:1.0;"/><polygon fill="#181818" points="1493.4638,570.3902,1503.3082,570.6888,1498.0924,568.4989,1500.2822,563.2831,1493.4638,570.3902" style="stroke:#181818;stroke-width:1.0;"/><path d="M1594.7524,529.0034 C1565.7437,540.8565 1530.5928,555.2192 1499.0181,568.1207 " fill="none" style="stroke:#181818;stroke-width:1.0;"/><polygon fill="#181818" points="2129.5864,237.9402,2122.9269,230.6841,2125.0009,235.9471,2119.7379,238.0211,2129.5864,237.9402" style="stroke:#181818;stroke-width:1.0;"/><path d="M1595.4659,217.3702 C1623.535,199.5725 1658.7563,180.7253 1693.5,171.4883 C1794.8676,144.5386 1826.5359,151.4865 1929.5,171.4883 C2001.723,185.5183 2075.7975,214.561 2124.0837,235.5485 " fill="none" style="stroke:#181818;stroke-width:1.0;stroke-dasharray:7.0,7.0;"/><text fill="#000000" font-family="sans-serif" font-size="13" lengthAdjust="spacing" textLength="89" x="1816" y="160.0566">crea boundary</text><polygon fill="#181818" points="1685.7763,379.892,1695.4718,381.623,1690.6311,378.696,1693.5582,373.8553,1685.7763,379.892" style="stroke:#181818;stroke-width:1.0;"/><path d="M2118.4809,273.2893 C2014.7102,298.8547 1799.2073,351.9468 1691.6021,378.4568 " fill="none" style="stroke:#181818;stroke-width:1.0;"/><polygon fill="#181818" points="2149.3443,279.1911,2142.1543,279.7418,2139.8971,286.5905,2147.0872,286.0399,2149.3443,279.1911" style="stroke:#181818;stroke-width:1.0;"/><path d="M2139.8971,286.5905 C2107.0038,312.3538 2059.1744,349.8155 2026.4054,375.4815 " fill="none" style="stroke:#181818;stroke-width:1.0;"/><polygon fill="#181818" points="1679.8028,496.9753,1689.5845,498.1238,1684.5775,495.4912,1687.21,490.4843,1679.8028,496.9753" style="stroke:#181818;stroke-width:1.0;"/><path d="M1938.7345,416.4965 C1865.5417,439.2456 1751.8742,474.5747 1685.5324,495.1944 " fill="none" style="stroke:#181818;stroke-width:1.0;"/><polygon fill="#181818" points="2013.1134,492.3844,2015.9965,482.967,2012.5092,487.421,2008.0551,483.9337,2013.1134,492.3844" style="stroke:#181818;stroke-width:1.0;"/><path d="M2003.8749,416.4965 C2006.4493,437.6435 2009.8094,465.2439 2012.3884,486.4284 " fill="none" style="stroke:#181818;stroke-width:1.0;stroke-dasharray:7.0,7.0;"/><text fill="#000000" font-family="sans-serif" font-size="13" lengthAdjust="spacing" textLength="101" x="2012.5" y="471.0566">costruisce corpi</text><polygon fill="#181818" points="2230.628,277.5229,2235.0964,283.1828,2242.0394,281.235,2237.5711,275.5751,2230.628,277.5229" style="stroke:#181818;stroke-width:1.0;"/><path d="M2242.0394,281.235 C2297.8265,299.3821 2374.2813,324.8524 2449.5,352.4883 C2469.0123,359.6573 2490.3301,368.0156 2508.766,375.4138 " fill="none" style="stroke:#181818;stroke-width:1.0;"/><polygon fill="#181818" points="2556.5,492.3844,2560.5,483.3844,2556.5,487.3844,2552.5,483.3844,2556.5,492.3844" style="stroke:#181818;stroke-width:1.0;"/><path d="M2556.5,416.4965 C2556.5,437.6435 2556.5,465.2 2556.5,486.3844 " fill="none" style="stroke:#181818;stroke-width:1.0;"/><polygon fill="#181818" points="1680.3062,505.6486,1689.7616,508.4048,1685.261,504.9777,1688.6881,500.4771,1680.3062,505.6486" style="stroke:#181818;stroke-width:1.0;"/><path d="M2516.8658,416.4983 C2497.1195,425.2333 2472.5826,434.6416 2449.5,439.4883 C2340.255,462.4265 2058.1287,442.5912 1947.5,457.4883 C1914.9142,461.8762 1907.7746,468.2083 1875.5,474.4883 C1808.1889,487.5858 1735.6499,498.1548 1686.252,504.8435 " fill="none" style="stroke:#181818;stroke-width:1.0;"/><polygon fill="#181818" points="2201.6914,279.1911,2204.203,285.9507,2211.4086,286.2322,2208.897,279.4726,2201.6914,279.1911" style="stroke:#181818;stroke-width:1.0;"/><path d="M2211.4086,286.2322 C2246.9638,311.9955 2299.1583,349.8155 2334.5792,375.4815 " fill="none" style="stroke:#181818;stroke-width:1.0;"/><polygon fill="#181818" points="1678.2979,379.9579,1688.0473,381.3543,1683.1087,378.5956,1685.8675,373.657,1678.2979,379.9579" style="stroke:#181818;stroke-width:1.0;"/><path d="M2340.9911,375.1868 C2322.7255,358.2523 2294.3395,335.6308 2264.5,325.9883 C2124.5162,280.7531 2079.6994,309.6357 1933.5,325.9883 C1842.6207,336.1533 1745.2337,361.0026 1684.0709,378.3231 " fill="none" style="stroke:#181818;stroke-width:1.0;"/><polygon fill="#181818" points="2893.9765,375.3622,2887.4432,367.9923,2889.426,373.2903,2884.1281,375.2731,2893.9765,375.3622" style="stroke:#181818;stroke-width:1.0;"/><path d="M2230.6131,262.4552 C2345.6157,269.6096 2615.5805,291.9347 2833.5,352.4883 C2854.0381,358.1952 2870.4683,364.6584 2888.5159,372.8759 " fill="none" style="stroke:#181818;stroke-width:1.0;"/><polygon fill="#181818" points="2933.5,492.3844,2937.5,483.3844,2933.5,487.3844,2929.5,483.3844,2933.5,492.3844" style="stroke:#181818;stroke-width:1.0;"/><path d="M2933.5,416.4965 C2933.5,437.6435 2933.5,465.2 2933.5,486.3844 " fill="none" style="stroke:#181818;stroke-width:1.0;"/><polygon fill="#181818" points="1680.0634,507.0361,1689.4375,510.0571,1685.0351,506.5048,1688.5873,502.1024,1680.0634,507.0361" style="stroke:#181818;stroke-width:1.0;"/><path d="M2896.624,416.6441 C2878.2086,425.4135 2855.2621,434.8088 2833.5,439.4883 C2653.5693,478.1785 2188.316,436.2674 2005.5,457.4883 C1969.393,461.6795 1961.3369,468.4058 1925.5,474.4883 C1839.5132,489.0826 1744.4714,500.1529 1686.0294,506.3986 " fill="none" style="stroke:#181818;stroke-width:1.0;"/><polygon fill="#181818" points="2230.7772,265.0895,2236.2962,269.7307,2242.7031,266.4212,2237.1841,261.7801,2230.7772,265.0895" style="stroke:#181818;stroke-width:1.0;"/><path d="M2242.7031,266.4212 C2335.0239,276.7305 2511.628,301.1811 2663.5,352.4883 C2681.0066,358.4026 2699.4644,367.2766 2714.6903,375.3886 " fill="none" style="stroke:#181818;stroke-width:1.0;"/><polygon fill="#181818" points="2174.5,279.1911,2170.5,285.1911,2174.5,291.1911,2178.5,285.1911,2174.5,279.1911" style="stroke:#181818;stroke-width:1.0;"/><path d="M2174.5,291.1911 C2174.5,316.881 2174.5,349.5601 2174.5,375.2616 " fill="none" style="stroke:#181818;stroke-width:1.0;"/><polygon fill="#181818" points="2174.5,492.3844,2178.5,483.3844,2174.5,487.3844,2170.5,483.3844,2174.5,492.3844" style="stroke:#181818;stroke-width:1.0;"/><path d="M2174.5,416.4965 C2174.5,437.6435 2174.5,465.2 2174.5,486.3844 " fill="none" style="stroke:#181818;stroke-width:1.0;"/><polygon fill="#181818" points="1680.4481,500.9194,1690.0979,502.8895,1685.331,499.8437,1688.3768,495.0769,1680.4481,500.9194" style="stroke:#181818;stroke-width:1.0;"/><path d="M2136.0169,416.4977 C2117.808,424.9001 2095.4959,434.0308 2074.5,439.4883 C2001.8211,458.3798 1980.7374,446.1779 1906.5,457.4883 C1826.8674,469.6206 1741.1227,487.5533 1686.3076,499.6286 " fill="none" style="stroke:#181818;stroke-width:1.0;"/><!--SRC=[bLRDRjms4BxpAQPxQb9xaruDOm5dane6x3R86aLpdENEUWbJf41I6s-A07s8F4HU8UUyIP-aGqgMH4bUeoTHccz-EVDfVYeTtXK86W-s2k0B2cXG11KqmOVA15KGR4Y3LdlIsiA__to5tr3YXZyhaEYKn89Ci43WRGZMAn-eK71xyvSG_bwP4XqM83LwVn62K-igq9MqPgK-4xmMEyMcg2Z30GegrkIy40aCimBBLvhOhvyViD0pG0_NwVqZlyBv-SUBc-l5OWn_TQusY_eyqFmVYg5uwFHkYmTMuvnOIvGex_6EOBR4WDhUnTptgDK6FojhQ0P_2m1b0hajIgeDN7XFuGDvg_VasDGb1lg41pO7TMqcO9vnNEjWtGZNU6P0Sne2Rj2eBVd0YBUtVmobRschZ0eSxKY-t96yBos7VmJKnVfdofj3P4nxxY4lkJjM0LseokUWoMWZOATSXKftyN_9wjwrdQkRj2vwRMWboT3Ick2irgdQ5sMfMIFbKdVlOf4K07u1RN6JVF-iDY_EwZ2QrcyGbOcOPUKSkwoX3DnRjM70bzOlDqaINZCukQqFmnGxsxbQ_yCDbYa1llrunysnP-dAMyPSakM9TGV6hCZjbQH1fLRzaUpDSRzSxtS7hwHlfZgrN2fG2s173UPDfNITMdFgeTuPAWxlZBHLxFmcd2omSOiTGt4Lbl7-P51hJK_Nj0SwPkxtKbx5mBYCt0N7aEaoLj8HnSP_m_biC9l0vGwZ6NBDS3AA7lZLe9wEwoYE0vkKypNsoExqT95DlkZeh1Lr0ok6K_xoz1Hch-VpbxF90HSPgIJmhmayQVSHrphEM4jC4Tby_Woq8uTdhKv0iw8CGAth8RM8IMxAtRVVXHYooiZv522dX14aLhhF2N06dY4868BQenWmIaobPOjChpKqlAi-85UDlxI941zVaqRECfsiqUknrBW-RTsRKJe3VYAictaIVLbRoqTkx0jZ81b7YPon-aaCH366CNjn9DO7LockDHzTgKR-9ibCJ5DSz3-aX2FG_1PwFaUqACP4URHGZVKHQuf9AarXZpZgQUpJSOy8U0IP95ynJSdHLyU9Hq1jGCBOGDnO_Aihm6w7_t_ndgU9MHLAfunK9MewQxQ0-QXh3NhUJRbrPBFRdMHBBc-09oBsSThqqXyr6xEu17lUdgjMhZ4RwRbu97l3jFpZMnPK6X39WU3QkiWw2dn9KcsLL2SYhUcmjIvsBSMnunsTBV277Mzw3Xr1gNvyp_Vmtaz_BiXi81RhFm00]--></g></svg>